<?xml version="1.0" encoding="UTF-8" standalone="no"?>
<!DOCTYPE svg PUBLIC "-//W3C//DTD SVG 1.1//EN"
 "http://www.w3.org/Graphics/SVG/1.1/DTD/svg11.dtd">
<!-- Generated by graphviz version 2.43.0 (0)
 -->
<!-- Title: FiftyOne.IpIntelligence.Examples.ExampleBase Pages: 1 -->
<svg width="390pt" height="350pt"
 viewBox="0.00 0.00 390.00 350.00" xmlns="http://www.w3.org/2000/svg" xmlns:xlink="http://www.w3.org/1999/xlink">
<g id="graph0" class="graph" transform="scale(1 1) rotate(0) translate(4 346)">
<title>FiftyOne.IpIntelligence.Examples.ExampleBase</title>
<!-- Node0 -->
<g id="node1" class="node">
<title>Node0</title>
<g id="a_node1"><a xlink:title=" ">
<polygon fill="#bfbfbf" stroke="black" points="0,-156 0,-186 134,-186 134,-156 0,-156"/>
<text text-anchor="start" x="8" y="-174" font-family="Helvetica,sans-Serif" font-size="10.00">FiftyOne.IpIntelligence.</text>
<text text-anchor="middle" x="67" y="-163" font-family="Helvetica,sans-Serif" font-size="10.00">Examples.ExampleBase</text>
</a>
</g>
</g>
<!-- Node1 -->
<g id="node2" class="node">
<title>Node1</title>
<g id="a_node2"><a xlink:href="class_fifty_one_1_1_ip_intelligence_1_1_examples_1_1_cloud_1_1_metadata_1_1_program_1_1_example.html" target="_top" xlink:title=" ">
<polygon fill="none" stroke="black" points="180,-300.5 180,-341.5 372,-341.5 372,-300.5 180,-300.5"/>
<text text-anchor="start" x="188" y="-329.5" font-family="Helvetica,sans-Serif" font-size="10.00">FiftyOne.IpIntelligence.</text>
<text text-anchor="start" x="188" y="-318.5" font-family="Helvetica,sans-Serif" font-size="10.00">Examples.Cloud.Metadata.Program.</text>
<text text-anchor="middle" x="276" y="-307.5" font-family="Helvetica,sans-Serif" font-size="10.00">Example</text>
</a>
</g>
</g>
<!-- Node0&#45;&gt;Node1 -->
<g id="edge1" class="edge">
<title>Node0&#45;&gt;Node1</title>
<path fill="none" stroke="midnightblue" d="M81.9,-194.53C99.18,-221.74 131.18,-265.99 170,-291 175.5,-294.54 181.42,-297.67 187.56,-300.44"/>
<polygon fill="midnightblue" stroke="midnightblue" points="84.86,-192.66 76.62,-186.01 78.91,-196.35 84.86,-192.66"/>
</g>
<!-- Node2 -->
<g id="node3" class="node">
<title>Node2</title>
<g id="a_node3"><a xlink:href="class_fifty_one_1_1_ip_intelligence_1_1_examples_1_1_on_premise_1_1_getting_started_console_1_1_program_1_1_example.html" target="_top" xlink:title=" ">
<polygon fill="none" stroke="black" points="178.5,-240.5 178.5,-281.5 373.5,-281.5 373.5,-240.5 178.5,-240.5"/>
<text text-anchor="start" x="186.5" y="-269.5" font-family="Helvetica,sans-Serif" font-size="10.00">FiftyOne.IpIntelligence.</text>
<text text-anchor="start" x="186.5" y="-258.5" font-family="Helvetica,sans-Serif" font-size="10.00">Examples.OnPremise.GettingStarted</text>
<text text-anchor="middle" x="276" y="-247.5" font-family="Helvetica,sans-Serif" font-size="10.00">Console.Program.Example</text>
</a>
</g>
</g>
<!-- Node0&#45;&gt;Node2 -->
<g id="edge2" class="edge">
<title>Node0&#45;&gt;Node2</title>
<path fill="none" stroke="midnightblue" d="M98.38,-191.63C118.12,-204.33 144.78,-220.19 170,-231 178.02,-234.44 186.54,-237.61 195.13,-240.49"/>
<polygon fill="midnightblue" stroke="midnightblue" points="100.11,-188.58 89.83,-186.05 96.29,-194.44 100.11,-188.58"/>
</g>
<!-- Node3 -->
<g id="node4" class="node">
<title>Node3</title>
<g id="a_node4"><a xlink:href="class_fifty_one_1_1_ip_intelligence_1_1_examples_1_1_on_premise_1_1_metadata_1_1_program_1_1_example.html" target="_top" xlink:title=" ">
<polygon fill="none" stroke="black" points="189.5,-180.5 189.5,-221.5 362.5,-221.5 362.5,-180.5 189.5,-180.5"/>
<text text-anchor="start" x="197.5" y="-209.5" font-family="Helvetica,sans-Serif" font-size="10.00">FiftyOne.IpIntelligence.</text>
<text text-anchor="start" x="197.5" y="-198.5" font-family="Helvetica,sans-Serif" font-size="10.00">Examples.OnPremise.Metadata.</text>
<text text-anchor="middle" x="276" y="-187.5" font-family="Helvetica,sans-Serif" font-size="10.00">Program.Example</text>
</a>
</g>
</g>
<!-- Node0&#45;&gt;Node3 -->
<g id="edge3" class="edge">
<title>Node0&#45;&gt;Node3</title>
<path fill="none" stroke="midnightblue" d="M144.07,-182.03C158.74,-184.15 174.19,-186.39 189.14,-188.56"/>
<polygon fill="midnightblue" stroke="midnightblue" points="144.46,-178.55 134.07,-180.57 143.46,-185.47 144.46,-178.55"/>
</g>
<!-- Node4 -->
<g id="node5" class="node">
<title>Node4</title>
<g id="a_node5"><a xlink:href="class_fifty_one_1_1_ip_intelligence_1_1_examples_1_1_on_premise_1_1_offline_processing_1_1_program_1_1_example.html" target="_top" xlink:title=" ">
<polygon fill="none" stroke="black" points="170,-120.5 170,-161.5 382,-161.5 382,-120.5 170,-120.5"/>
<text text-anchor="start" x="178" y="-149.5" font-family="Helvetica,sans-Serif" font-size="10.00">FiftyOne.IpIntelligence.</text>
<text text-anchor="start" x="178" y="-138.5" font-family="Helvetica,sans-Serif" font-size="10.00">Examples.OnPremise.OfflineProcessing.</text>
<text text-anchor="middle" x="276" y="-127.5" font-family="Helvetica,sans-Serif" font-size="10.00">Program.Example</text>
</a>
</g>
</g>
<!-- Node0&#45;&gt;Node4 -->
<g id="edge4" class="edge">
<title>Node0&#45;&gt;Node4</title>
<path fill="none" stroke="midnightblue" d="M144.18,-159.96C152.59,-158.74 161.26,-157.48 169.94,-156.23"/>
<polygon fill="midnightblue" stroke="midnightblue" points="143.46,-156.53 134.07,-161.43 144.46,-163.45 143.46,-156.53"/>
</g>
<!-- Node5 -->
<g id="node6" class="node">
<title>Node5</title>
<g id="a_node6"><a xlink:href="class_fifty_one_1_1_ip_intelligence_1_1_examples_1_1_on_premise_1_1_performance_1_1_program_1_1_example.html" target="_top" xlink:title=" ">
<polygon fill="none" stroke="black" points="181.5,-60.5 181.5,-101.5 370.5,-101.5 370.5,-60.5 181.5,-60.5"/>
<text text-anchor="start" x="189.5" y="-89.5" font-family="Helvetica,sans-Serif" font-size="10.00">FiftyOne.IpIntelligence.</text>
<text text-anchor="start" x="189.5" y="-78.5" font-family="Helvetica,sans-Serif" font-size="10.00">Examples.OnPremise.Performance.</text>
<text text-anchor="middle" x="276" y="-67.5" font-family="Helvetica,sans-Serif" font-size="10.00">Program.Example</text>
</a>
</g>
</g>
<!-- Node0&#45;&gt;Node5 -->
<g id="edge5" class="edge">
<title>Node0&#45;&gt;Node5</title>
<path fill="none" stroke="midnightblue" d="M98.38,-150.37C118.12,-137.67 144.78,-121.81 170,-111 178.02,-107.56 186.54,-104.39 195.13,-101.51"/>
<polygon fill="midnightblue" stroke="midnightblue" points="96.29,-147.56 89.83,-155.95 100.11,-153.42 96.29,-147.56"/>
</g>
<!-- Node6 -->
<g id="node7" class="node">
<title>Node6</title>
<g id="a_node7"><a xlink:href="class_fifty_one_1_1_ip_intelligence_1_1_examples_1_1_on_premise_1_1_update_data_file_1_1_program_1_1_example.html" target="_top" xlink:title=" ">
<polygon fill="none" stroke="black" points="185,-0.5 185,-41.5 367,-41.5 367,-0.5 185,-0.5"/>
<text text-anchor="start" x="193" y="-29.5" font-family="Helvetica,sans-Serif" font-size="10.00">FiftyOne.IpIntelligence.</text>
<text text-anchor="start" x="193" y="-18.5" font-family="Helvetica,sans-Serif" font-size="10.00">Examples.OnPremise.UpdateData</text>
<text text-anchor="middle" x="276" y="-7.5" font-family="Helvetica,sans-Serif" font-size="10.00">File.Program.Example</text>
</a>
</g>
</g>
<!-- Node0&#45;&gt;Node6 -->
<g id="edge6" class="edge">
<title>Node0&#45;&gt;Node6</title>
<path fill="none" stroke="midnightblue" d="M81.9,-147.47C99.18,-120.26 131.18,-76.01 170,-51 175.5,-47.46 181.42,-44.33 187.56,-41.56"/>
<polygon fill="midnightblue" stroke="midnightblue" points="78.91,-145.65 76.62,-155.99 84.86,-149.34 78.91,-145.65"/>
</g>
</g>
</svg>
