<?xml version="1.0" encoding="UTF-8" standalone="no"?>
<!DOCTYPE svg PUBLIC "-//W3C//DTD SVG 1.1//EN"
 "http://www.w3.org/Graphics/SVG/1.1/DTD/svg11.dtd">
<!-- Generated by graphviz version 2.43.0 (0)
 -->
<!-- Title: FiftyOne.IpIntelligence.Engine.OnPremise.Data.IpDataOnPremise Pages: 1 -->
<svg width="260pt" height="173pt"
 viewBox="0.00 0.00 259.50 173.00" xmlns="http://www.w3.org/2000/svg" xmlns:xlink="http://www.w3.org/1999/xlink">
<g id="graph0" class="graph" transform="scale(1 1) rotate(0) translate(4 169)">
<title>FiftyOne.IpIntelligence.Engine.OnPremise.Data.IpDataOnPremise</title>
<!-- Node0 -->
<g id="node1" class="node">
<title>Node0</title>
<g id="a_node1"><a xlink:title="Class used for on&#45;premise results">
<polygon fill="#bfbfbf" stroke="black" points="46.5,-0.5 46.5,-41.5 213.5,-41.5 213.5,-0.5 46.5,-0.5"/>
<text text-anchor="start" x="54.5" y="-29.5" font-family="Helvetica,sans-Serif" font-size="10.00">FiftyOne.IpIntelligence.</text>
<text text-anchor="start" x="54.5" y="-18.5" font-family="Helvetica,sans-Serif" font-size="10.00">Engine.OnPremise.Data.IpData</text>
<text text-anchor="middle" x="130" y="-7.5" font-family="Helvetica,sans-Serif" font-size="10.00">OnPremise</text>
</a>
</g>
</g>
<!-- Node1 -->
<g id="node2" class="node">
<title>Node1</title>
<g id="a_node2"><a xlink:title=" ">
<polygon fill="none" stroke="#bfbfbf" points="0,-78.5 0,-108.5 126,-108.5 126,-78.5 0,-78.5"/>
<text text-anchor="start" x="8" y="-96.5" font-family="Helvetica,sans-Serif" font-size="10.00">IpDataBaseOnPremise</text>
<text text-anchor="middle" x="63" y="-85.5" font-family="Helvetica,sans-Serif" font-size="10.00">&lt; ResultsIpiSwig &gt;</text>
</a>
</g>
</g>
<!-- Node1&#45;&gt;Node0 -->
<g id="edge1" class="edge">
<title>Node1&#45;&gt;Node0</title>
<path fill="none" stroke="midnightblue" d="M83.6,-70.82C92.47,-61.49 102.75,-50.67 111.38,-41.59"/>
<polygon fill="midnightblue" stroke="midnightblue" points="80.91,-68.57 76.56,-78.23 85.98,-73.4 80.91,-68.57"/>
</g>
<!-- Node2 -->
<g id="node3" class="node">
<title>Node2</title>
<g id="a_node3"><a xlink:href="interface_fifty_one_1_1_ip_intelligence_1_1_engine_1_1_on_premise_1_1_data_1_1_i_ip_data_on_premise.html" target="_top" xlink:title="Represents a data class that contains IP data from an on&#45;premise IP intelligence engine.">
<polygon fill="none" stroke="black" points="144.5,-84 144.5,-103 249.5,-103 249.5,-84 144.5,-84"/>
<text text-anchor="middle" x="197" y="-91" font-family="Helvetica,sans-Serif" font-size="10.00">IIpDataOnPremise</text>
</a>
</g>
</g>
<!-- Node2&#45;&gt;Node0 -->
<g id="edge2" class="edge">
<title>Node2&#45;&gt;Node0</title>
<path fill="none" stroke="midnightblue" d="M181.66,-76.36C171.86,-66.05 159.08,-52.6 148.69,-41.66"/>
<polygon fill="midnightblue" stroke="midnightblue" points="179.36,-79.02 188.78,-83.86 184.43,-74.2 179.36,-79.02"/>
</g>
<!-- Node3 -->
<g id="node4" class="node">
<title>Node3</title>
<g id="a_node4"><a xlink:title=" ">
<polygon fill="none" stroke="#bfbfbf" points="142.5,-145.5 142.5,-164.5 251.5,-164.5 251.5,-145.5 142.5,-145.5"/>
<text text-anchor="middle" x="197" y="-152.5" font-family="Helvetica,sans-Serif" font-size="10.00">IIpIntelligenceData</text>
</a>
</g>
</g>
<!-- Node3&#45;&gt;Node2 -->
<g id="edge3" class="edge">
<title>Node3&#45;&gt;Node2</title>
<path fill="none" stroke="midnightblue" d="M197,-135.32C197,-124.5 197,-111.4 197,-103.01"/>
<polygon fill="midnightblue" stroke="midnightblue" points="193.5,-135.48 197,-145.48 200.5,-135.48 193.5,-135.48"/>
</g>
</g>
</svg>
