<?xml version="1.0" encoding="UTF-8" standalone="no"?>
<!DOCTYPE svg PUBLIC "-//W3C//DTD SVG 1.1//EN"
 "http://www.w3.org/Graphics/SVG/1.1/DTD/svg11.dtd">
<!-- Generated by graphviz version 2.43.0 (0)
 -->
<!-- Title: FiftyOne.IpIntelligence.Engine.OnPremise.Interop.ResultsIpiSwig Pages: 1 -->
<svg width="190pt" height="162pt"
 viewBox="0.00 0.00 190.00 162.00" xmlns="http://www.w3.org/2000/svg" xmlns:xlink="http://www.w3.org/1999/xlink">
<g id="graph0" class="graph" transform="scale(1 1) rotate(0) translate(4 158)">
<title>FiftyOne.IpIntelligence.Engine.OnPremise.Interop.ResultsIpiSwig</title>
<!-- Node0 -->
<g id="node1" class="node">
<title>Node0</title>
<g id="a_node1"><a xlink:title=" ">
<polygon fill="#bfbfbf" stroke="black" points="0,-0.5 0,-41.5 182,-41.5 182,-0.5 0,-0.5"/>
<text text-anchor="start" x="8" y="-29.5" font-family="Helvetica,sans-Serif" font-size="10.00">FiftyOne.IpIntelligence.</text>
<text text-anchor="start" x="8" y="-18.5" font-family="Helvetica,sans-Serif" font-size="10.00">Engine.OnPremise.Interop.Results</text>
<text text-anchor="middle" x="91" y="-7.5" font-family="Helvetica,sans-Serif" font-size="10.00">IpiSwig</text>
</a>
</g>
</g>
<!-- Node1 -->
<g id="node2" class="node">
<title>Node1</title>
<g id="a_node2"><a xlink:href="class_fifty_one_1_1_ip_intelligence_1_1_engine_1_1_on_premise_1_1_interop_1_1_results_base_swig.html" target="_top" xlink:title=" ">
<polygon fill="none" stroke="black" points="41,-78.5 41,-97.5 141,-97.5 141,-78.5 41,-78.5"/>
<text text-anchor="middle" x="91" y="-85.5" font-family="Helvetica,sans-Serif" font-size="10.00">ResultsBaseSwig</text>
</a>
</g>
</g>
<!-- Node1&#45;&gt;Node0 -->
<g id="edge1" class="edge">
<title>Node1&#45;&gt;Node0</title>
<path fill="none" stroke="midnightblue" d="M91,-68.04C91,-59.71 91,-49.94 91,-41.54"/>
<polygon fill="midnightblue" stroke="midnightblue" points="87.5,-68.23 91,-78.23 94.5,-68.23 87.5,-68.23"/>
</g>
<!-- Node2 -->
<g id="node3" class="node">
<title>Node2</title>
<g id="a_node3"><a xlink:title=" ">
<polygon fill="none" stroke="#bfbfbf" points="18,-134.5 18,-153.5 164,-153.5 164,-134.5 18,-134.5"/>
<text text-anchor="middle" x="91" y="-141.5" font-family="Helvetica,sans-Serif" font-size="10.00">global::SystemIDisposable</text>
</a>
</g>
</g>
<!-- Node2&#45;&gt;Node1 -->
<g id="edge2" class="edge">
<title>Node2&#45;&gt;Node1</title>
<path fill="none" stroke="midnightblue" d="M91,-123.8C91,-114.91 91,-104.78 91,-97.75"/>
<polygon fill="midnightblue" stroke="midnightblue" points="87.5,-124.08 91,-134.08 94.5,-124.08 87.5,-124.08"/>
</g>
</g>
</svg>
