<?xml version="1.0" encoding="UTF-8" standalone="no"?>
<!DOCTYPE svg PUBLIC "-//W3C//DTD SVG 1.1//EN"
 "http://www.w3.org/Graphics/SVG/1.1/DTD/svg11.dtd">
<!-- Generated by graphviz version 2.43.0 (0)
 -->
<!-- Title: FiftyOne.IpIntelligence.Engine.OnPremise.Interop.WeightedDoubleListSwig Pages: 1 -->
<svg width="406pt" height="138pt"
 viewBox="0.00 0.00 406.00 138.00" xmlns="http://www.w3.org/2000/svg" xmlns:xlink="http://www.w3.org/1999/xlink">
<g id="graph0" class="graph" transform="scale(1 1) rotate(0) translate(4 134)">
<title>FiftyOne.IpIntelligence.Engine.OnPremise.Interop.WeightedDoubleListSwig</title>
<!-- Node0 -->
<g id="node1" class="node">
<title>Node0</title>
<g id="a_node1"><a xlink:title=" ">
<polygon fill="#bfbfbf" stroke="black" points="206,-55.5 206,-96.5 398,-96.5 398,-55.5 206,-55.5"/>
<text text-anchor="start" x="214" y="-84.5" font-family="Helvetica,sans-Serif" font-size="10.00">FiftyOne.IpIntelligence.</text>
<text text-anchor="start" x="214" y="-73.5" font-family="Helvetica,sans-Serif" font-size="10.00">Engine.OnPremise.Interop.Weighted</text>
<text text-anchor="middle" x="302" y="-62.5" font-family="Helvetica,sans-Serif" font-size="10.00">DoubleListSwig</text>
</a>
</g>
</g>
<!-- Node1 -->
<g id="node2" class="node">
<title>Node1</title>
<g id="a_node2"><a xlink:title=" ">
<polygon fill="none" stroke="#bfbfbf" points="12,-110.5 12,-129.5 158,-129.5 158,-110.5 12,-110.5"/>
<text text-anchor="middle" x="85" y="-117.5" font-family="Helvetica,sans-Serif" font-size="10.00">global::SystemIDisposable</text>
</a>
</g>
</g>
<!-- Node1&#45;&gt;Node0 -->
<g id="edge1" class="edge">
<title>Node1&#45;&gt;Node0</title>
<path fill="none" stroke="midnightblue" d="M142.52,-108.43C161.94,-104.46 184.24,-99.9 205.86,-95.47"/>
<polygon fill="midnightblue" stroke="midnightblue" points="141.75,-105.02 132.65,-110.45 143.15,-111.88 141.75,-105.02"/>
</g>
<!-- Node2 -->
<g id="node3" class="node">
<title>Node2</title>
<g id="a_node3"><a xlink:title=" ">
<polygon fill="none" stroke="#bfbfbf" points="13.5,-61 13.5,-91 156.5,-91 156.5,-61 13.5,-61"/>
<text text-anchor="start" x="21.5" y="-79" font-family="Helvetica,sans-Serif" font-size="10.00">global::SystemCollections</text>
<text text-anchor="middle" x="85" y="-68" font-family="Helvetica,sans-Serif" font-size="10.00">::IEnumerable</text>
</a>
</g>
</g>
<!-- Node2&#45;&gt;Node0 -->
<g id="edge2" class="edge">
<title>Node2&#45;&gt;Node0</title>
<path fill="none" stroke="midnightblue" d="M166.75,-76C179.46,-76 192.69,-76 205.68,-76"/>
<polygon fill="midnightblue" stroke="midnightblue" points="166.7,-72.5 156.7,-76 166.7,-79.5 166.7,-72.5"/>
</g>
<!-- Node3 -->
<g id="node4" class="node">
<title>Node3</title>
<g id="a_node4"><a xlink:title=" ">
<polygon fill="none" stroke="#bfbfbf" points="0,-0.5 0,-41.5 170,-41.5 170,-0.5 0,-0.5"/>
<text text-anchor="start" x="8" y="-29.5" font-family="Helvetica,sans-Serif" font-size="10.00">global::SystemCollections</text>
<text text-anchor="start" x="8" y="-18.5" font-family="Helvetica,sans-Serif" font-size="10.00">::Generic::IEnumerable</text>
<text text-anchor="middle" x="85" y="-7.5" font-family="Helvetica,sans-Serif" font-size="10.00">&lt; WeightedValueDoubleSwig &gt;</text>
</a>
</g>
</g>
<!-- Node3&#45;&gt;Node0 -->
<g id="edge3" class="edge">
<title>Node3&#45;&gt;Node0</title>
<path fill="none" stroke="midnightblue" d="M176.46,-44.14C191.16,-47.9 206.3,-51.77 220.73,-55.47"/>
<polygon fill="midnightblue" stroke="midnightblue" points="176.92,-40.65 166.36,-41.56 175.18,-47.43 176.92,-40.65"/>
</g>
</g>
</svg>
