<?xml version="1.0" encoding="UTF-8" standalone="no"?>
<!DOCTYPE svg PUBLIC "-//W3C//DTD SVG 1.1//EN"
 "http://www.w3.org/Graphics/SVG/1.1/DTD/svg11.dtd">
<!-- Generated by graphviz version 2.43.0 (0)
 -->
<!-- Title: FiftyOne.IpIntelligence.Engine.OnPremise.Interop.WeightedIntListSwig Pages: 1 -->
<svg width="384pt" height="138pt"
 viewBox="0.00 0.00 384.00 138.00" xmlns="http://www.w3.org/2000/svg" xmlns:xlink="http://www.w3.org/1999/xlink">
<g id="graph0" class="graph" transform="scale(1 1) rotate(0) translate(4 134)">
<title>FiftyOne.IpIntelligence.Engine.OnPremise.Interop.WeightedIntListSwig</title>
<!-- Node4 -->
<g id="node1" class="node">
<title>Node4</title>
<g id="a_node1"><a xlink:title=" ">
<polygon fill="#bfbfbf" stroke="black" points="184,-55.5 184,-96.5 376,-96.5 376,-55.5 184,-55.5"/>
<text text-anchor="start" x="192" y="-84.5" font-family="Helvetica,sans-Serif" font-size="10.00">FiftyOne.IpIntelligence.</text>
<text text-anchor="start" x="192" y="-73.5" font-family="Helvetica,sans-Serif" font-size="10.00">Engine.OnPremise.Interop.Weighted</text>
<text text-anchor="middle" x="280" y="-62.5" font-family="Helvetica,sans-Serif" font-size="10.00">IntListSwig</text>
</a>
</g>
</g>
<!-- Node5 -->
<g id="node2" class="node">
<title>Node5</title>
<g id="a_node2"><a xlink:title=" ">
<polygon fill="none" stroke="#bfbfbf" points="1,-110.5 1,-129.5 147,-129.5 147,-110.5 1,-110.5"/>
<text text-anchor="middle" x="74" y="-117.5" font-family="Helvetica,sans-Serif" font-size="10.00">global::SystemIDisposable</text>
</a>
</g>
</g>
<!-- Node5&#45;&gt;Node4 -->
<g id="edge1" class="edge">
<title>Node5&#45;&gt;Node4</title>
<path fill="none" stroke="midnightblue" d="M129.38,-108.27C146.13,-104.66 165.08,-100.57 183.73,-96.55"/>
<polygon fill="midnightblue" stroke="midnightblue" points="128.3,-104.92 119.26,-110.45 129.78,-111.77 128.3,-104.92"/>
</g>
<!-- Node6 -->
<g id="node3" class="node">
<title>Node6</title>
<g id="a_node3"><a xlink:title=" ">
<polygon fill="none" stroke="#bfbfbf" points="2.5,-61 2.5,-91 145.5,-91 145.5,-61 2.5,-61"/>
<text text-anchor="start" x="10.5" y="-79" font-family="Helvetica,sans-Serif" font-size="10.00">global::SystemCollections</text>
<text text-anchor="middle" x="74" y="-68" font-family="Helvetica,sans-Serif" font-size="10.00">::IEnumerable</text>
</a>
</g>
</g>
<!-- Node6&#45;&gt;Node4 -->
<g id="edge2" class="edge">
<title>Node6&#45;&gt;Node4</title>
<path fill="none" stroke="midnightblue" d="M156.01,-76C165.18,-76 174.59,-76 183.91,-76"/>
<polygon fill="midnightblue" stroke="midnightblue" points="155.78,-72.5 145.78,-76 155.78,-79.5 155.78,-72.5"/>
</g>
<!-- Node7 -->
<g id="node4" class="node">
<title>Node7</title>
<g id="a_node4"><a xlink:title=" ">
<polygon fill="none" stroke="#bfbfbf" points="0,-0.5 0,-41.5 148,-41.5 148,-0.5 0,-0.5"/>
<text text-anchor="start" x="8" y="-29.5" font-family="Helvetica,sans-Serif" font-size="10.00">global::SystemCollections</text>
<text text-anchor="start" x="8" y="-18.5" font-family="Helvetica,sans-Serif" font-size="10.00">::Generic::IEnumerable</text>
<text text-anchor="middle" x="74" y="-7.5" font-family="Helvetica,sans-Serif" font-size="10.00">&lt; WeightedValueIntSwig &gt;</text>
</a>
</g>
</g>
<!-- Node7&#45;&gt;Node4 -->
<g id="edge3" class="edge">
<title>Node7&#45;&gt;Node4</title>
<path fill="none" stroke="midnightblue" d="M157.73,-43.31C172.58,-47.31 187.99,-51.46 202.65,-55.42"/>
<polygon fill="midnightblue" stroke="midnightblue" points="158.64,-39.92 148.07,-40.7 156.82,-46.68 158.64,-39.92"/>
</g>
</g>
</svg>
