<?xml version="1.0" encoding="UTF-8" standalone="no"?>
<!DOCTYPE svg PUBLIC "-//W3C//DTD SVG 1.1//EN"
 "http://www.w3.org/Graphics/SVG/1.1/DTD/svg11.dtd">
<!-- Generated by graphviz version 2.43.0 (0)
 -->
<!-- Title: FiftyOne.IpIntelligence.Engine.OnPremise.FlowElements.IpiOnPremiseEngineBuilderBase&lt; TEngine &gt; Pages: 1 -->
<svg width="970pt" height="61pt"
 viewBox="0.00 0.00 970.00 61.00" xmlns="http://www.w3.org/2000/svg" xmlns:xlink="http://www.w3.org/1999/xlink">
<g id="graph0" class="graph" transform="scale(1 1) rotate(0) translate(4 57)">
<title>FiftyOne.IpIntelligence.Engine.OnPremise.FlowElements.IpiOnPremiseEngineBuilderBase&lt; TEngine &gt;</title>
<!-- Node0 -->
<g id="node1" class="node">
<title>Node0</title>
<g id="a_node1"><a xlink:title="Builder for the IpiOnPremiseEngine.">
<polygon fill="#bfbfbf" stroke="black" points="222,-0.5 222,-52.5 403,-52.5 403,-0.5 222,-0.5"/>
<text text-anchor="start" x="230" y="-40.5" font-family="Helvetica,sans-Serif" font-size="10.00">FiftyOne.IpIntelligence.</text>
<text text-anchor="start" x="230" y="-29.5" font-family="Helvetica,sans-Serif" font-size="10.00">Engine.OnPremise.FlowElements.</text>
<text text-anchor="start" x="230" y="-18.5" font-family="Helvetica,sans-Serif" font-size="10.00">IpiOnPremiseEngineBuilderBase</text>
<text text-anchor="middle" x="312.5" y="-7.5" font-family="Helvetica,sans-Serif" font-size="10.00">&lt; TEngine &gt;</text>
</a>
</g>
</g>
<!-- Node2 -->
<g id="node3" class="node">
<title>Node2</title>
<g id="a_node3"><a xlink:href="class_fifty_one_1_1_ip_intelligence_1_1_engine_1_1_on_premise_1_1_flow_elements_1_1_ipi_on_premise_engine_builder_base.html" target="_top" xlink:title=" ">
<polygon fill="none" stroke="black" points="563,-0.5 563,-52.5 744,-52.5 744,-0.5 563,-0.5"/>
<text text-anchor="start" x="571" y="-40.5" font-family="Helvetica,sans-Serif" font-size="10.00">FiftyOne.IpIntelligence.</text>
<text text-anchor="start" x="571" y="-29.5" font-family="Helvetica,sans-Serif" font-size="10.00">Engine.OnPremise.FlowElements.</text>
<text text-anchor="start" x="571" y="-18.5" font-family="Helvetica,sans-Serif" font-size="10.00">IpiOnPremiseEngineBuilderBase</text>
<text text-anchor="middle" x="653.5" y="-7.5" font-family="Helvetica,sans-Serif" font-size="10.00">&lt; IpiOnPremiseEngine &gt;</text>
</a>
</g>
</g>
<!-- Node0&#45;&gt;Node2 -->
<g id="edge2" class="edge">
<title>Node0&#45;&gt;Node2</title>
<path fill="none" stroke="orange" stroke-dasharray="5,2" d="M413.29,-26.5C460.64,-26.5 516.79,-26.5 562.78,-26.5"/>
<polygon fill="orange" stroke="orange" points="413.01,-23 403.01,-26.5 413.01,-30 413.01,-23"/>
<text text-anchor="middle" x="483" y="-29.5" font-family="Helvetica,sans-Serif" font-size="10.00"> &lt; IpiOnPremiseEngine &gt;</text>
</g>
<!-- Node1 -->
<g id="node2" class="node">
<title>Node1</title>
<g id="a_node2"><a xlink:title=" ">
<polygon fill="none" stroke="#bfbfbf" points="0,-6 0,-47 185,-47 185,-6 0,-6"/>
<text text-anchor="start" x="8" y="-35" font-family="Helvetica,sans-Serif" font-size="10.00">OnPremiseIpiEngineBuilder</text>
<text text-anchor="start" x="8" y="-24" font-family="Helvetica,sans-Serif" font-size="10.00">Base&lt; IpiOnPremiseEngineBuilder</text>
<text text-anchor="middle" x="92.5" y="-13" font-family="Helvetica,sans-Serif" font-size="10.00">Base&lt; TEngine &gt;, TEngine &gt;</text>
</a>
</g>
</g>
<!-- Node1&#45;&gt;Node0 -->
<g id="edge1" class="edge">
<title>Node1&#45;&gt;Node0</title>
<path fill="none" stroke="midnightblue" d="M195.09,-26.5C204.07,-26.5 213.11,-26.5 221.98,-26.5"/>
<polygon fill="midnightblue" stroke="midnightblue" points="195,-23 185,-26.5 195,-30 195,-23"/>
</g>
<!-- Node3 -->
<g id="node4" class="node">
<title>Node3</title>
<g id="a_node4"><a xlink:href="class_fifty_one_1_1_ip_intelligence_1_1_engine_1_1_on_premise_1_1_flow_elements_1_1_ipi_on_premise_engine_builder.html" target="_top" xlink:title="Builder for the IpiOnPremiseEngine.">
<polygon fill="none" stroke="black" points="781,-6 781,-47 962,-47 962,-6 781,-6"/>
<text text-anchor="start" x="789" y="-35" font-family="Helvetica,sans-Serif" font-size="10.00">FiftyOne.IpIntelligence.</text>
<text text-anchor="start" x="789" y="-24" font-family="Helvetica,sans-Serif" font-size="10.00">Engine.OnPremise.FlowElements.</text>
<text text-anchor="middle" x="871.5" y="-13" font-family="Helvetica,sans-Serif" font-size="10.00">IpiOnPremiseEngineBuilder</text>
</a>
</g>
</g>
<!-- Node2&#45;&gt;Node3 -->
<g id="edge3" class="edge">
<title>Node2&#45;&gt;Node3</title>
<path fill="none" stroke="midnightblue" d="M754.46,-26.5C763.21,-26.5 772.04,-26.5 780.7,-26.5"/>
<polygon fill="midnightblue" stroke="midnightblue" points="754.23,-23 744.23,-26.5 754.23,-30 754.23,-23"/>
</g>
</g>
</svg>
