<?xml version="1.0" encoding="UTF-8" standalone="no"?>
<!DOCTYPE svg PUBLIC "-//W3C//DTD SVG 1.1//EN"
 "http://www.w3.org/Graphics/SVG/1.1/DTD/svg11.dtd">
<!-- Generated by graphviz version 2.43.0 (0)
 -->
<!-- Title: Graphical Class Hierarchy Pages: 1 -->
<svg width="318pt" height="230pt"
 viewBox="0.00 0.00 318.00 230.00" xmlns="http://www.w3.org/2000/svg" xmlns:xlink="http://www.w3.org/1999/xlink">
<g id="graph0" class="graph" transform="scale(1 1) rotate(0) translate(4 226)">
<title>Graphical Class Hierarchy</title>
<!-- Node185 -->
<g id="node1" class="node">
<title>Node185</title>
<g id="a_node1"><a xlink:title=" ">
<polygon fill="none" stroke="#bfbfbf" points="0,-101.5 0,-120.5 65,-120.5 65,-101.5 0,-101.5"/>
<text text-anchor="middle" x="32.5" y="-108.5" font-family="Helvetica,sans-Serif" font-size="10.00">Controller</text>
</a>
</g>
</g>
<!-- Node0 -->
<g id="node2" class="node">
<title>Node0</title>
<g id="a_node2"><a xlink:href="class_fifty_one_1_1_ip_intelligence_1_1_examples_1_1_cloud_1_1_getting_started_web_1_1_controllers_1_1_home_controller.html" target="_top" xlink:title=" ">
<polygon fill="none" stroke="black" points="118.5,-180.5 118.5,-221.5 292.5,-221.5 292.5,-180.5 118.5,-180.5"/>
<text text-anchor="start" x="126.5" y="-209.5" font-family="Helvetica,sans-Serif" font-size="10.00">FiftyOne.IpIntelligence.</text>
<text text-anchor="start" x="126.5" y="-198.5" font-family="Helvetica,sans-Serif" font-size="10.00">Examples.Cloud.GettingStarted</text>
<text text-anchor="middle" x="205.5" y="-187.5" font-family="Helvetica,sans-Serif" font-size="10.00">Web.Controllers.HomeController</text>
</a>
</g>
</g>
<!-- Node185&#45;&gt;Node0 -->
<g id="edge1" class="edge">
<title>Node185&#45;&gt;Node0</title>
<path fill="none" stroke="midnightblue" d="M48.71,-128.2C61.45,-141.63 80.77,-159.83 101,-171 107.39,-174.53 114.23,-177.67 121.24,-180.48"/>
<polygon fill="midnightblue" stroke="midnightblue" points="51.02,-125.55 41.68,-120.56 45.87,-130.29 51.02,-125.55"/>
</g>
<!-- Node187 -->
<g id="node3" class="node">
<title>Node187</title>
<g id="a_node3"><a xlink:href="class_fifty_one_1_1_ip_intelligence_1_1_examples_1_1_mixed_1_1_cloud_1_1_getting_started_web_1_1c37a66a2903772610d83596387461ea0.html" target="_top" xlink:title=" ">
<polygon fill="none" stroke="black" points="101,-120.5 101,-161.5 310,-161.5 310,-120.5 101,-120.5"/>
<text text-anchor="start" x="109" y="-149.5" font-family="Helvetica,sans-Serif" font-size="10.00">FiftyOne.IpIntelligence.</text>
<text text-anchor="start" x="109" y="-138.5" font-family="Helvetica,sans-Serif" font-size="10.00">Examples.Mixed.Cloud.Getting</text>
<text text-anchor="middle" x="205.5" y="-127.5" font-family="Helvetica,sans-Serif" font-size="10.00">StartedWeb.Controllers.HomeController</text>
</a>
</g>
</g>
<!-- Node185&#45;&gt;Node187 -->
<g id="edge2" class="edge">
<title>Node185&#45;&gt;Node187</title>
<path fill="none" stroke="midnightblue" d="M75.26,-118.33C83.2,-119.72 91.82,-121.23 100.72,-122.79"/>
<polygon fill="midnightblue" stroke="midnightblue" points="75.72,-114.85 65.26,-116.57 74.51,-121.75 75.72,-114.85"/>
</g>
<!-- Node188 -->
<g id="node4" class="node">
<title>Node188</title>
<g id="a_node4"><a xlink:href="class_fifty_one_1_1_ip_intelligence_1_1_examples_1_1_mixed_1_1_on_premise_1_1_getting_started_we21acfbfc9755c92c9d2d705366905912.html" target="_top" xlink:title=" ">
<polygon fill="none" stroke="black" points="101,-60.5 101,-101.5 310,-101.5 310,-60.5 101,-60.5"/>
<text text-anchor="start" x="109" y="-89.5" font-family="Helvetica,sans-Serif" font-size="10.00">FiftyOne.IpIntelligence.</text>
<text text-anchor="start" x="109" y="-78.5" font-family="Helvetica,sans-Serif" font-size="10.00">Examples.Mixed.OnPremise.Getting</text>
<text text-anchor="middle" x="205.5" y="-67.5" font-family="Helvetica,sans-Serif" font-size="10.00">StartedWeb.Controllers.HomeController</text>
</a>
</g>
</g>
<!-- Node185&#45;&gt;Node188 -->
<g id="edge3" class="edge">
<title>Node185&#45;&gt;Node188</title>
<path fill="none" stroke="midnightblue" d="M75.26,-103.67C83.2,-102.28 91.82,-100.77 100.72,-99.21"/>
<polygon fill="midnightblue" stroke="midnightblue" points="74.51,-100.25 65.26,-105.43 75.72,-107.15 74.51,-100.25"/>
</g>
<!-- Node189 -->
<g id="node5" class="node">
<title>Node189</title>
<g id="a_node5"><a xlink:href="class_fifty_one_1_1_ip_intelligence_1_1_examples_1_1_on_premise_1_1_getting_started_web_1_1_controllers_1_1_home_controller.html" target="_top" xlink:title=" ">
<polygon fill="none" stroke="black" points="108,-0.5 108,-41.5 303,-41.5 303,-0.5 108,-0.5"/>
<text text-anchor="start" x="116" y="-29.5" font-family="Helvetica,sans-Serif" font-size="10.00">FiftyOne.IpIntelligence.</text>
<text text-anchor="start" x="116" y="-18.5" font-family="Helvetica,sans-Serif" font-size="10.00">Examples.OnPremise.GettingStarted</text>
<text text-anchor="middle" x="205.5" y="-7.5" font-family="Helvetica,sans-Serif" font-size="10.00">Web.Controllers.HomeController</text>
</a>
</g>
</g>
<!-- Node185&#45;&gt;Node189 -->
<g id="edge4" class="edge">
<title>Node185&#45;&gt;Node189</title>
<path fill="none" stroke="midnightblue" d="M48.71,-93.8C61.45,-80.37 80.77,-62.17 101,-51 107.39,-47.47 114.23,-44.33 121.24,-41.52"/>
<polygon fill="midnightblue" stroke="midnightblue" points="45.87,-91.71 41.68,-101.44 51.02,-96.45 45.87,-91.71"/>
</g>
</g>
</svg>
