<?xml version="1.0" encoding="UTF-8" standalone="no"?>
<!DOCTYPE svg PUBLIC "-//W3C//DTD SVG 1.1//EN"
 "http://www.w3.org/Graphics/SVG/1.1/DTD/svg11.dtd">
<!-- Generated by graphviz version 2.43.0 (0)
 -->
<!-- Title: Graphical Class Hierarchy Pages: 1 -->
<svg width="318pt" height="110pt"
 viewBox="0.00 0.00 318.00 110.00" xmlns="http://www.w3.org/2000/svg" xmlns:xlink="http://www.w3.org/1999/xlink">
<g id="graph0" class="graph" transform="scale(1 1) rotate(0) translate(4 106)">
<title>Graphical Class Hierarchy</title>
<!-- Node163 -->
<g id="node1" class="node">
<title>Node163</title>
<g id="a_node1"><a xlink:title=" ">
<polygon fill="none" stroke="#bfbfbf" points="0,-41.5 0,-60.5 65,-60.5 65,-41.5 0,-41.5"/>
<text text-anchor="middle" x="32.5" y="-48.5" font-family="Helvetica,sans-Serif" font-size="10.00">Controller</text>
</a>
</g>
</g>
<!-- Node0 -->
<g id="node2" class="node">
<title>Node0</title>
<g id="a_node2"><a xlink:href="class_fifty_one_1_1_ip_intelligence_1_1_examples_1_1_mixed_1_1_on_premise_1_1_getting_started_we21acfbfc9755c92c9d2d705366905912.html" target="_top" xlink:title=" ">
<polygon fill="none" stroke="black" points="101,-60.5 101,-101.5 310,-101.5 310,-60.5 101,-60.5"/>
<text text-anchor="start" x="109" y="-89.5" font-family="Helvetica,sans-Serif" font-size="10.00">FiftyOne.IpIntelligence.</text>
<text text-anchor="start" x="109" y="-78.5" font-family="Helvetica,sans-Serif" font-size="10.00">Examples.Mixed.OnPremise.Getting</text>
<text text-anchor="middle" x="205.5" y="-67.5" font-family="Helvetica,sans-Serif" font-size="10.00">StartedWeb.Controllers.HomeController</text>
</a>
</g>
</g>
<!-- Node163&#45;&gt;Node0 -->
<g id="edge1" class="edge">
<title>Node163&#45;&gt;Node0</title>
<path fill="none" stroke="midnightblue" d="M75.26,-58.33C83.2,-59.72 91.82,-61.23 100.72,-62.79"/>
<polygon fill="midnightblue" stroke="midnightblue" points="75.72,-54.85 65.26,-56.57 74.51,-61.75 75.72,-54.85"/>
</g>
<!-- Node165 -->
<g id="node3" class="node">
<title>Node165</title>
<g id="a_node3"><a xlink:href="class_fifty_one_1_1_ip_intelligence_1_1_examples_1_1_on_premise_1_1_getting_started_web_1_1_controllers_1_1_home_controller.html" target="_top" xlink:title=" ">
<polygon fill="none" stroke="black" points="108,-0.5 108,-41.5 303,-41.5 303,-0.5 108,-0.5"/>
<text text-anchor="start" x="116" y="-29.5" font-family="Helvetica,sans-Serif" font-size="10.00">FiftyOne.IpIntelligence.</text>
<text text-anchor="start" x="116" y="-18.5" font-family="Helvetica,sans-Serif" font-size="10.00">Examples.OnPremise.GettingStarted</text>
<text text-anchor="middle" x="205.5" y="-7.5" font-family="Helvetica,sans-Serif" font-size="10.00">Web.Controllers.HomeController</text>
</a>
</g>
</g>
<!-- Node163&#45;&gt;Node165 -->
<g id="edge2" class="edge">
<title>Node163&#45;&gt;Node165</title>
<path fill="none" stroke="midnightblue" d="M75.29,-43.67C85.33,-41.91 96.47,-39.95 107.88,-37.95"/>
<polygon fill="midnightblue" stroke="midnightblue" points="74.51,-40.25 65.26,-45.43 75.72,-47.15 74.51,-40.25"/>
</g>
</g>
</svg>
