<?xml version="1.0" encoding="UTF-8" standalone="no"?>
<!DOCTYPE svg PUBLIC "-//W3C//DTD SVG 1.1//EN"
 "http://www.w3.org/Graphics/SVG/1.1/DTD/svg11.dtd">
<!-- Generated by graphviz version 2.43.0 (0)
 -->
<!-- Title: Graphical Class Hierarchy Pages: 1 -->
<svg width="309pt" height="110pt"
 viewBox="0.00 0.00 309.00 110.00" xmlns="http://www.w3.org/2000/svg" xmlns:xlink="http://www.w3.org/1999/xlink">
<g id="graph0" class="graph" transform="scale(1 1) rotate(0) translate(4 106)">
<title>Graphical Class Hierarchy</title>
<!-- Node86 -->
<g id="node1" class="node">
<title>Node86</title>
<g id="a_node1"><a xlink:title=" ">
<polygon fill="none" stroke="#bfbfbf" points="0,-41.5 0,-60.5 70,-60.5 70,-41.5 0,-41.5"/>
<text text-anchor="middle" x="35" y="-48.5" font-family="Helvetica,sans-Serif" font-size="10.00">PageModel</text>
</a>
</g>
</g>
<!-- Node0 -->
<g id="node2" class="node">
<title>Node0</title>
<g id="a_node2"><a xlink:href="class_fifty_one_1_1_ip_intelligence_1_1_examples_1_1_cloud_1_1_getting_started_web_1_1_pages_1_1_index_model.html" target="_top" xlink:title=" ">
<polygon fill="none" stroke="black" points="118.5,-60.5 118.5,-101.5 288.5,-101.5 288.5,-60.5 118.5,-60.5"/>
<text text-anchor="start" x="126.5" y="-89.5" font-family="Helvetica,sans-Serif" font-size="10.00">FiftyOne.IpIntelligence.</text>
<text text-anchor="start" x="126.5" y="-78.5" font-family="Helvetica,sans-Serif" font-size="10.00">Examples.Cloud.GettingStarted</text>
<text text-anchor="middle" x="203.5" y="-67.5" font-family="Helvetica,sans-Serif" font-size="10.00">Web.Pages.IndexModel</text>
</a>
</g>
</g>
<!-- Node86&#45;&gt;Node0 -->
<g id="edge1" class="edge">
<title>Node86&#45;&gt;Node0</title>
<path fill="none" stroke="midnightblue" d="M80.08,-58.94C91.88,-61.07 105.05,-63.44 118.24,-65.82"/>
<polygon fill="midnightblue" stroke="midnightblue" points="80.56,-55.47 70.1,-57.14 79.32,-62.36 80.56,-55.47"/>
</g>
<!-- Node88 -->
<g id="node3" class="node">
<title>Node88</title>
<g id="a_node3"><a xlink:href="class_fifty_one_1_1_ip_intelligence_1_1_examples_1_1_on_premise_1_1_getting_started_web_1_1_pages_1_1_index_model.html" target="_top" xlink:title=" ">
<polygon fill="none" stroke="black" points="106,-0.5 106,-41.5 301,-41.5 301,-0.5 106,-0.5"/>
<text text-anchor="start" x="114" y="-29.5" font-family="Helvetica,sans-Serif" font-size="10.00">FiftyOne.IpIntelligence.</text>
<text text-anchor="start" x="114" y="-18.5" font-family="Helvetica,sans-Serif" font-size="10.00">Examples.OnPremise.GettingStarted</text>
<text text-anchor="middle" x="203.5" y="-7.5" font-family="Helvetica,sans-Serif" font-size="10.00">Web.Pages.IndexModel</text>
</a>
</g>
</g>
<!-- Node86&#45;&gt;Node88 -->
<g id="edge2" class="edge">
<title>Node86&#45;&gt;Node88</title>
<path fill="none" stroke="midnightblue" d="M80,-43.07C88.11,-41.61 96.87,-40.03 105.84,-38.42"/>
<polygon fill="midnightblue" stroke="midnightblue" points="79.32,-39.64 70.1,-44.86 80.56,-46.53 79.32,-39.64"/>
</g>
</g>
</svg>
