<?xml version="1.0" encoding="UTF-8" standalone="no"?>
<!DOCTYPE svg PUBLIC "-//W3C//DTD SVG 1.1//EN"
 "http://www.w3.org/Graphics/SVG/1.1/DTD/svg11.dtd">
<!-- Generated by graphviz version 2.43.0 (0)
 -->
<!-- Title: Graphical Class Hierarchy Pages: 1 -->
<svg width="318pt" height="170pt"
 viewBox="0.00 0.00 318.00 170.00" xmlns="http://www.w3.org/2000/svg" xmlns:xlink="http://www.w3.org/1999/xlink">
<g id="graph0" class="graph" transform="scale(1 1) rotate(0) translate(4 166)">
<title>Graphical Class Hierarchy</title>
<!-- Node179 -->
<g id="node1" class="node">
<title>Node179</title>
<g id="a_node1"><a xlink:title=" ">
<polygon fill="none" stroke="#bfbfbf" points="0,-71.5 0,-90.5 65,-90.5 65,-71.5 0,-71.5"/>
<text text-anchor="middle" x="32.5" y="-78.5" font-family="Helvetica,sans-Serif" font-size="10.00">Controller</text>
</a>
</g>
</g>
<!-- Node0 -->
<g id="node2" class="node">
<title>Node0</title>
<g id="a_node2"><a xlink:href="class_fifty_one_1_1_ip_intelligence_1_1_examples_1_1_cloud_1_1_getting_started_web_1_1_controllers_1_1_home_controller.html" target="_top" xlink:title=" ">
<polygon fill="none" stroke="black" points="118.5,-120.5 118.5,-161.5 292.5,-161.5 292.5,-120.5 118.5,-120.5"/>
<text text-anchor="start" x="126.5" y="-149.5" font-family="Helvetica,sans-Serif" font-size="10.00">FiftyOne.IpIntelligence.</text>
<text text-anchor="start" x="126.5" y="-138.5" font-family="Helvetica,sans-Serif" font-size="10.00">Examples.Cloud.GettingStarted</text>
<text text-anchor="middle" x="205.5" y="-127.5" font-family="Helvetica,sans-Serif" font-size="10.00">Web.Controllers.HomeController</text>
</a>
</g>
</g>
<!-- Node179&#45;&gt;Node0 -->
<g id="edge1" class="edge">
<title>Node179&#45;&gt;Node0</title>
<path fill="none" stroke="midnightblue" d="M62.37,-94.87C74.2,-100.28 88.11,-106.29 101,-111 110.05,-114.31 119.65,-117.49 129.21,-120.48"/>
<polygon fill="midnightblue" stroke="midnightblue" points="63.54,-91.55 53,-90.51 60.59,-97.9 63.54,-91.55"/>
</g>
<!-- Node181 -->
<g id="node3" class="node">
<title>Node181</title>
<g id="a_node3"><a xlink:href="class_fifty_one_1_1_ip_intelligence_1_1_examples_1_1_mixed_1_1_on_premise_1_1_getting_started_we21acfbfc9755c92c9d2d705366905912.html" target="_top" xlink:title=" ">
<polygon fill="none" stroke="black" points="101,-60.5 101,-101.5 310,-101.5 310,-60.5 101,-60.5"/>
<text text-anchor="start" x="109" y="-89.5" font-family="Helvetica,sans-Serif" font-size="10.00">FiftyOne.IpIntelligence.</text>
<text text-anchor="start" x="109" y="-78.5" font-family="Helvetica,sans-Serif" font-size="10.00">Examples.Mixed.OnPremise.Getting</text>
<text text-anchor="middle" x="205.5" y="-67.5" font-family="Helvetica,sans-Serif" font-size="10.00">StartedWeb.Controllers.HomeController</text>
</a>
</g>
</g>
<!-- Node179&#45;&gt;Node181 -->
<g id="edge2" class="edge">
<title>Node179&#45;&gt;Node181</title>
<path fill="none" stroke="midnightblue" d="M75.26,-81C83.2,-81 91.82,-81 100.72,-81"/>
<polygon fill="midnightblue" stroke="midnightblue" points="75.26,-77.5 65.26,-81 75.26,-84.5 75.26,-77.5"/>
</g>
<!-- Node182 -->
<g id="node4" class="node">
<title>Node182</title>
<g id="a_node4"><a xlink:href="class_fifty_one_1_1_ip_intelligence_1_1_examples_1_1_on_premise_1_1_getting_started_web_1_1_controllers_1_1_home_controller.html" target="_top" xlink:title=" ">
<polygon fill="none" stroke="black" points="108,-0.5 108,-41.5 303,-41.5 303,-0.5 108,-0.5"/>
<text text-anchor="start" x="116" y="-29.5" font-family="Helvetica,sans-Serif" font-size="10.00">FiftyOne.IpIntelligence.</text>
<text text-anchor="start" x="116" y="-18.5" font-family="Helvetica,sans-Serif" font-size="10.00">Examples.OnPremise.GettingStarted</text>
<text text-anchor="middle" x="205.5" y="-7.5" font-family="Helvetica,sans-Serif" font-size="10.00">Web.Controllers.HomeController</text>
</a>
</g>
</g>
<!-- Node179&#45;&gt;Node182 -->
<g id="edge3" class="edge">
<title>Node179&#45;&gt;Node182</title>
<path fill="none" stroke="midnightblue" d="M62.37,-67.13C74.2,-61.72 88.11,-55.71 101,-51 110.05,-47.69 119.65,-44.51 129.21,-41.52"/>
<polygon fill="midnightblue" stroke="midnightblue" points="60.59,-64.1 53,-71.49 63.54,-70.45 60.59,-64.1"/>
</g>
</g>
</svg>
