<?xml version="1.0" encoding="UTF-8" standalone="no"?>
<!DOCTYPE svg PUBLIC "-//W3C//DTD SVG 1.1//EN"
 "http://www.w3.org/Graphics/SVG/1.1/DTD/svg11.dtd">
<!-- Generated by graphviz version 2.43.0 (0)
 -->
<!-- Title: FiftyOne.IpIntelligence.Engine.OnPremise.Interop.WeightedBoolListSwig Pages: 1 -->
<svg width="393pt" height="138pt"
 viewBox="0.00 0.00 393.00 138.00" xmlns="http://www.w3.org/2000/svg" xmlns:xlink="http://www.w3.org/1999/xlink">
<g id="graph0" class="graph" transform="scale(1 1) rotate(0) translate(4 134)">
<title>FiftyOne.IpIntelligence.Engine.OnPremise.Interop.WeightedBoolListSwig</title>
<!-- Node4 -->
<g id="node1" class="node">
<title>Node4</title>
<g id="a_node1"><a xlink:title=" ">
<polygon fill="#bfbfbf" stroke="black" points="193,-55.5 193,-96.5 385,-96.5 385,-55.5 193,-55.5"/>
<text text-anchor="start" x="201" y="-84.5" font-family="Helvetica,sans-Serif" font-size="10.00">FiftyOne.IpIntelligence.</text>
<text text-anchor="start" x="201" y="-73.5" font-family="Helvetica,sans-Serif" font-size="10.00">Engine.OnPremise.Interop.Weighted</text>
<text text-anchor="middle" x="289" y="-62.5" font-family="Helvetica,sans-Serif" font-size="10.00">BoolListSwig</text>
</a>
</g>
</g>
<!-- Node5 -->
<g id="node2" class="node">
<title>Node5</title>
<g id="a_node2"><a xlink:title=" ">
<polygon fill="none" stroke="#bfbfbf" points="5.5,-110.5 5.5,-129.5 151.5,-129.5 151.5,-110.5 5.5,-110.5"/>
<text text-anchor="middle" x="78.5" y="-117.5" font-family="Helvetica,sans-Serif" font-size="10.00">global::SystemIDisposable</text>
</a>
</g>
</g>
<!-- Node5&#45;&gt;Node4 -->
<g id="edge1" class="edge">
<title>Node5&#45;&gt;Node4</title>
<path fill="none" stroke="midnightblue" d="M134.91,-108.31C152.71,-104.55 172.95,-100.28 192.76,-96.1"/>
<polygon fill="midnightblue" stroke="midnightblue" points="133.8,-104.96 124.74,-110.45 135.25,-111.81 133.8,-104.96"/>
</g>
<!-- Node6 -->
<g id="node3" class="node">
<title>Node6</title>
<g id="a_node3"><a xlink:title=" ">
<polygon fill="none" stroke="#bfbfbf" points="7,-61 7,-91 150,-91 150,-61 7,-61"/>
<text text-anchor="start" x="15" y="-79" font-family="Helvetica,sans-Serif" font-size="10.00">global::SystemCollections</text>
<text text-anchor="middle" x="78.5" y="-68" font-family="Helvetica,sans-Serif" font-size="10.00">::IEnumerable</text>
</a>
</g>
</g>
<!-- Node6&#45;&gt;Node4 -->
<g id="edge2" class="edge">
<title>Node6&#45;&gt;Node4</title>
<path fill="none" stroke="midnightblue" d="M160.18,-76C170.84,-76 181.84,-76 192.71,-76"/>
<polygon fill="midnightblue" stroke="midnightblue" points="160.09,-72.5 150.09,-76 160.09,-79.5 160.09,-72.5"/>
</g>
<!-- Node7 -->
<g id="node4" class="node">
<title>Node7</title>
<g id="a_node4"><a xlink:title=" ">
<polygon fill="none" stroke="#bfbfbf" points="0,-0.5 0,-41.5 157,-41.5 157,-0.5 0,-0.5"/>
<text text-anchor="start" x="8" y="-29.5" font-family="Helvetica,sans-Serif" font-size="10.00">global::SystemCollections</text>
<text text-anchor="start" x="8" y="-18.5" font-family="Helvetica,sans-Serif" font-size="10.00">::Generic::IEnumerable</text>
<text text-anchor="middle" x="78.5" y="-7.5" font-family="Helvetica,sans-Serif" font-size="10.00">&lt; WeightedValueBoolSwig &gt;</text>
</a>
</g>
</g>
<!-- Node7&#45;&gt;Node4 -->
<g id="edge3" class="edge">
<title>Node7&#45;&gt;Node4</title>
<path fill="none" stroke="midnightblue" d="M166.94,-44.07C181.21,-47.83 195.92,-51.71 209.95,-55.41"/>
<polygon fill="midnightblue" stroke="midnightblue" points="167.7,-40.65 157.14,-41.48 165.91,-47.41 167.7,-40.65"/>
</g>
</g>
</svg>
