<?xml version="1.0" encoding="UTF-8" standalone="no"?>
<!DOCTYPE svg PUBLIC "-//W3C//DTD SVG 1.1//EN"
 "http://www.w3.org/Graphics/SVG/1.1/DTD/svg11.dtd">
<!-- Generated by graphviz version 2.43.0 (0)
 -->
<!-- Title: FiftyOne.IpIntelligence.Engine.OnPremise.Interop.MapStringStringSwig Pages: 1 -->
<svg width="357pt" height="88pt"
 viewBox="0.00 0.00 357.00 88.00" xmlns="http://www.w3.org/2000/svg" xmlns:xlink="http://www.w3.org/1999/xlink">
<g id="graph0" class="graph" transform="scale(1 1) rotate(0) translate(4 84)">
<title>FiftyOne.IpIntelligence.Engine.OnPremise.Interop.MapStringStringSwig</title>
<!-- Node5 -->
<g id="node1" class="node">
<title>Node5</title>
<g id="a_node1"><a xlink:title=" ">
<polygon fill="#bfbfbf" stroke="black" points="182,-24.5 182,-65.5 349,-65.5 349,-24.5 182,-24.5"/>
<text text-anchor="start" x="190" y="-53.5" font-family="Helvetica,sans-Serif" font-size="10.00">FiftyOne.IpIntelligence.</text>
<text text-anchor="start" x="190" y="-42.5" font-family="Helvetica,sans-Serif" font-size="10.00">Engine.OnPremise.Interop.Map</text>
<text text-anchor="middle" x="265.5" y="-31.5" font-family="Helvetica,sans-Serif" font-size="10.00">StringStringSwig</text>
</a>
</g>
</g>
<!-- Node6 -->
<g id="node2" class="node">
<title>Node6</title>
<g id="a_node2"><a xlink:title=" ">
<polygon fill="none" stroke="#bfbfbf" points="0,-60.5 0,-79.5 146,-79.5 146,-60.5 0,-60.5"/>
<text text-anchor="middle" x="73" y="-67.5" font-family="Helvetica,sans-Serif" font-size="10.00">global::SystemIDisposable</text>
</a>
</g>
</g>
<!-- Node6&#45;&gt;Node5 -->
<g id="edge1" class="edge">
<title>Node6&#45;&gt;Node5</title>
<path fill="none" stroke="midnightblue" d="M155.99,-59.24C164.55,-58.12 173.26,-56.97 181.83,-55.85"/>
<polygon fill="midnightblue" stroke="midnightblue" points="155.48,-55.78 146.02,-60.55 156.39,-62.72 155.48,-55.78"/>
</g>
<!-- Node7 -->
<g id="node3" class="node">
<title>Node7</title>
<g id="a_node3"><a xlink:title=" ">
<polygon fill="none" stroke="#bfbfbf" points="1.5,-0.5 1.5,-41.5 144.5,-41.5 144.5,-0.5 1.5,-0.5"/>
<text text-anchor="start" x="9.5" y="-29.5" font-family="Helvetica,sans-Serif" font-size="10.00">global::SystemCollections</text>
<text text-anchor="start" x="9.5" y="-18.5" font-family="Helvetica,sans-Serif" font-size="10.00">::Generic::IDictionary</text>
<text text-anchor="middle" x="73" y="-7.5" font-family="Helvetica,sans-Serif" font-size="10.00">&lt; string, string &gt;</text>
</a>
</g>
</g>
<!-- Node7&#45;&gt;Node5 -->
<g id="edge2" class="edge">
<title>Node7&#45;&gt;Node5</title>
<path fill="none" stroke="midnightblue" d="M154.68,-31.16C163.63,-32.29 172.75,-33.44 181.72,-34.57"/>
<polygon fill="midnightblue" stroke="midnightblue" points="155.02,-27.68 144.66,-29.9 154.15,-34.63 155.02,-27.68"/>
</g>
</g>
</svg>
