<?xml version="1.0" encoding="UTF-8" standalone="no"?>
<!DOCTYPE svg PUBLIC "-//W3C//DTD SVG 1.1//EN"
 "http://www.w3.org/Graphics/SVG/1.1/DTD/svg11.dtd">
<!-- Generated by graphviz version 2.43.0 (0)
 -->
<!-- Title: FiftyOne.IpIntelligence.Engine.OnPremise.Interop.WeightedUTF8StringListSwig.WeightedUTF8StringListSwigEnumerator Pages: 1 -->
<svg width="447pt" height="100pt"
 viewBox="0.00 0.00 447.00 99.50" xmlns="http://www.w3.org/2000/svg" xmlns:xlink="http://www.w3.org/1999/xlink">
<g id="graph0" class="graph" transform="scale(1 1) rotate(0) translate(4 95.5)">
<title>FiftyOne.IpIntelligence.Engine.OnPremise.Interop.WeightedUTF8StringListSwig.WeightedUTF8StringListSwigEnumerator</title>
<!-- Node3 -->
<g id="node1" class="node">
<title>Node3</title>
<g id="a_node1"><a xlink:title="Note that the IEnumerator documentation requires an InvalidOperationException to be thrown whenever t...">
<polygon fill="#bfbfbf" stroke="black" points="225,-22 225,-74 439,-74 439,-22 225,-22"/>
<text text-anchor="start" x="233" y="-62" font-family="Helvetica,sans-Serif" font-size="10.00">FiftyOne.IpIntelligence.</text>
<text text-anchor="start" x="233" y="-51" font-family="Helvetica,sans-Serif" font-size="10.00">Engine.OnPremise.Interop.Weighted</text>
<text text-anchor="start" x="233" y="-40" font-family="Helvetica,sans-Serif" font-size="10.00">UTF8StringListSwig.WeightedUTF8String</text>
<text text-anchor="middle" x="332" y="-29" font-family="Helvetica,sans-Serif" font-size="10.00">ListSwigEnumerator</text>
</a>
</g>
</g>
<!-- Node4 -->
<g id="node2" class="node">
<title>Node4</title>
<g id="a_node2"><a xlink:title=" ">
<polygon fill="none" stroke="#bfbfbf" points="23,-61 23,-91 166,-91 166,-61 23,-61"/>
<text text-anchor="start" x="31" y="-79" font-family="Helvetica,sans-Serif" font-size="10.00">global::SystemCollections</text>
<text text-anchor="middle" x="94.5" y="-68" font-family="Helvetica,sans-Serif" font-size="10.00">::IEnumerator</text>
</a>
</g>
</g>
<!-- Node4&#45;&gt;Node3 -->
<g id="edge1" class="edge">
<title>Node4&#45;&gt;Node3</title>
<path fill="none" stroke="midnightblue" d="M176.26,-66.4C191.85,-64.54 208.41,-62.57 224.68,-60.64"/>
<polygon fill="midnightblue" stroke="midnightblue" points="175.67,-62.94 166.16,-67.6 176.5,-69.89 175.67,-62.94"/>
</g>
<!-- Node5 -->
<g id="node3" class="node">
<title>Node5</title>
<g id="a_node3"><a xlink:title=" ">
<polygon fill="none" stroke="#bfbfbf" points="0,-0.5 0,-41.5 189,-41.5 189,-0.5 0,-0.5"/>
<text text-anchor="start" x="8" y="-29.5" font-family="Helvetica,sans-Serif" font-size="10.00">global::SystemCollections</text>
<text text-anchor="start" x="8" y="-18.5" font-family="Helvetica,sans-Serif" font-size="10.00">::Generic::IEnumerator</text>
<text text-anchor="middle" x="94.5" y="-7.5" font-family="Helvetica,sans-Serif" font-size="10.00">&lt; WeightedValueUTF8StringSwig &gt;</text>
</a>
</g>
</g>
<!-- Node5&#45;&gt;Node3 -->
<g id="edge2" class="edge">
<title>Node5&#45;&gt;Node3</title>
<path fill="none" stroke="midnightblue" d="M199.45,-32.92C207.85,-33.88 216.35,-34.86 224.77,-35.82"/>
<polygon fill="midnightblue" stroke="midnightblue" points="199.59,-29.41 189.25,-31.75 198.79,-36.37 199.59,-29.41"/>
</g>
</g>
</svg>
