<?xml version="1.0" encoding="UTF-8" standalone="no"?>
<!DOCTYPE svg PUBLIC "-//W3C//DTD SVG 1.1//EN"
 "http://www.w3.org/Graphics/SVG/1.1/DTD/svg11.dtd">
<!-- Generated by graphviz version 2.43.0 (0)
 -->
<!-- Title: FiftyOne.IpIntelligence.Engine.OnPremise.Interop.VectorStringSwig Pages: 1 -->
<svg width="367pt" height="127pt"
 viewBox="0.00 0.00 367.00 126.50" xmlns="http://www.w3.org/2000/svg" xmlns:xlink="http://www.w3.org/1999/xlink">
<g id="graph0" class="graph" transform="scale(1 1) rotate(0) translate(4 122.5)">
<title>FiftyOne.IpIntelligence.Engine.OnPremise.Interop.VectorStringSwig</title>
<!-- Node0 -->
<g id="node1" class="node">
<title>Node0</title>
<g id="a_node1"><a xlink:title=" ">
<polygon fill="#bfbfbf" stroke="black" points="182,-44 182,-85 359,-85 359,-44 182,-44"/>
<text text-anchor="start" x="190" y="-73" font-family="Helvetica,sans-Serif" font-size="10.00">FiftyOne.IpIntelligence.</text>
<text text-anchor="start" x="190" y="-62" font-family="Helvetica,sans-Serif" font-size="10.00">Engine.OnPremise.Interop.Vector</text>
<text text-anchor="middle" x="270.5" y="-51" font-family="Helvetica,sans-Serif" font-size="10.00">StringSwig</text>
</a>
</g>
</g>
<!-- Node1 -->
<g id="node2" class="node">
<title>Node1</title>
<g id="a_node2"><a xlink:title=" ">
<polygon fill="none" stroke="#bfbfbf" points="0,-99 0,-118 146,-118 146,-99 0,-99"/>
<text text-anchor="middle" x="73" y="-106" font-family="Helvetica,sans-Serif" font-size="10.00">global::SystemIDisposable</text>
</a>
</g>
</g>
<!-- Node1&#45;&gt;Node0 -->
<g id="edge1" class="edge">
<title>Node1&#45;&gt;Node0</title>
<path fill="none" stroke="midnightblue" d="M126.19,-96.75C143.3,-92.9 162.8,-88.51 181.8,-84.24"/>
<polygon fill="midnightblue" stroke="midnightblue" points="125.41,-93.34 116.42,-98.95 126.95,-100.17 125.41,-93.34"/>
</g>
<!-- Node2 -->
<g id="node3" class="node">
<title>Node2</title>
<g id="a_node3"><a xlink:title=" ">
<polygon fill="none" stroke="#bfbfbf" points="1.5,-49.5 1.5,-79.5 144.5,-79.5 144.5,-49.5 1.5,-49.5"/>
<text text-anchor="start" x="9.5" y="-67.5" font-family="Helvetica,sans-Serif" font-size="10.00">global::SystemCollections</text>
<text text-anchor="middle" x="73" y="-56.5" font-family="Helvetica,sans-Serif" font-size="10.00">::IEnumerable</text>
</a>
</g>
</g>
<!-- Node2&#45;&gt;Node0 -->
<g id="edge2" class="edge">
<title>Node2&#45;&gt;Node0</title>
<path fill="none" stroke="midnightblue" d="M154.66,-64.5C163.67,-64.5 172.89,-64.5 181.99,-64.5"/>
<polygon fill="midnightblue" stroke="midnightblue" points="154.58,-61 144.58,-64.5 154.58,-68 154.58,-61"/>
</g>
<!-- Node3 -->
<g id="node4" class="node">
<title>Node3</title>
<g id="a_node4"><a xlink:title=" ">
<polygon fill="none" stroke="#bfbfbf" points="1.5,-0.5 1.5,-30.5 144.5,-30.5 144.5,-0.5 1.5,-0.5"/>
<text text-anchor="start" x="9.5" y="-18.5" font-family="Helvetica,sans-Serif" font-size="10.00">global::SystemCollections</text>
<text text-anchor="middle" x="73" y="-7.5" font-family="Helvetica,sans-Serif" font-size="10.00">::Generic::IList&lt; string &gt;</text>
</a>
</g>
</g>
<!-- Node3&#45;&gt;Node0 -->
<g id="edge3" class="edge">
<title>Node3&#45;&gt;Node0</title>
<path fill="none" stroke="midnightblue" d="M143.69,-32.97C157.93,-36.54 173.05,-40.33 187.67,-43.99"/>
<polygon fill="midnightblue" stroke="midnightblue" points="144.54,-29.57 133.99,-30.53 142.83,-36.36 144.54,-29.57"/>
</g>
</g>
</svg>
