<?xml version="1.0" encoding="UTF-8" standalone="no"?>
<!DOCTYPE svg PUBLIC "-//W3C//DTD SVG 1.1//EN"
 "http://www.w3.org/Graphics/SVG/1.1/DTD/svg11.dtd">
<!-- Generated by graphviz version 2.43.0 (0)
 -->
<!-- Title: FiftyOne.IpIntelligence.Engine.OnPremise.Interop.WeightedStringListSwig.WeightedStringListSwigEnumerator Pages: 1 -->
<svg width="411pt" height="100pt"
 viewBox="0.00 0.00 411.00 99.50" xmlns="http://www.w3.org/2000/svg" xmlns:xlink="http://www.w3.org/1999/xlink">
<g id="graph0" class="graph" transform="scale(1 1) rotate(0) translate(4 95.5)">
<title>FiftyOne.IpIntelligence.Engine.OnPremise.Interop.WeightedStringListSwig.WeightedStringListSwigEnumerator</title>
<!-- Node0 -->
<g id="node1" class="node">
<title>Node0</title>
<g id="a_node1"><a xlink:title="Note that the IEnumerator documentation requires an InvalidOperationException to be thrown whenever t...">
<polygon fill="#bfbfbf" stroke="black" points="200,-22 200,-74 403,-74 403,-22 200,-22"/>
<text text-anchor="start" x="208" y="-62" font-family="Helvetica,sans-Serif" font-size="10.00">FiftyOne.IpIntelligence.</text>
<text text-anchor="start" x="208" y="-51" font-family="Helvetica,sans-Serif" font-size="10.00">Engine.OnPremise.Interop.Weighted</text>
<text text-anchor="start" x="208" y="-40" font-family="Helvetica,sans-Serif" font-size="10.00">StringListSwig.WeightedStringListSwig</text>
<text text-anchor="middle" x="301.5" y="-29" font-family="Helvetica,sans-Serif" font-size="10.00">Enumerator</text>
</a>
</g>
</g>
<!-- Node1 -->
<g id="node2" class="node">
<title>Node1</title>
<g id="a_node2"><a xlink:title=" ">
<polygon fill="none" stroke="#bfbfbf" points="10.5,-61 10.5,-91 153.5,-91 153.5,-61 10.5,-61"/>
<text text-anchor="start" x="18.5" y="-79" font-family="Helvetica,sans-Serif" font-size="10.00">global::SystemCollections</text>
<text text-anchor="middle" x="82" y="-68" font-family="Helvetica,sans-Serif" font-size="10.00">::IEnumerator</text>
</a>
</g>
</g>
<!-- Node1&#45;&gt;Node0 -->
<g id="edge1" class="edge">
<title>Node1&#45;&gt;Node0</title>
<path fill="none" stroke="midnightblue" d="M163.8,-65.6C175.54,-64.09 187.75,-62.52 199.82,-60.96"/>
<polygon fill="midnightblue" stroke="midnightblue" points="163.09,-62.16 153.62,-66.91 163.98,-69.1 163.09,-62.16"/>
</g>
<!-- Node2 -->
<g id="node3" class="node">
<title>Node2</title>
<g id="a_node3"><a xlink:title=" ">
<polygon fill="none" stroke="#bfbfbf" points="0,-0.5 0,-41.5 164,-41.5 164,-0.5 0,-0.5"/>
<text text-anchor="start" x="8" y="-29.5" font-family="Helvetica,sans-Serif" font-size="10.00">global::SystemCollections</text>
<text text-anchor="start" x="8" y="-18.5" font-family="Helvetica,sans-Serif" font-size="10.00">::Generic::IEnumerator</text>
<text text-anchor="middle" x="82" y="-7.5" font-family="Helvetica,sans-Serif" font-size="10.00">&lt; WeightedValueStringSwig &gt;</text>
</a>
</g>
</g>
<!-- Node2&#45;&gt;Node0 -->
<g id="edge2" class="edge">
<title>Node2&#45;&gt;Node0</title>
<path fill="none" stroke="midnightblue" d="M174.44,-32.35C182.82,-33.39 191.35,-34.45 199.81,-35.5"/>
<polygon fill="midnightblue" stroke="midnightblue" points="174.65,-28.85 164.3,-31.09 173.79,-35.8 174.65,-28.85"/>
</g>
</g>
</svg>
