<?xml version="1.0" encoding="UTF-8" standalone="no"?>
<!DOCTYPE svg PUBLIC "-//W3C//DTD SVG 1.1//EN"
 "http://www.w3.org/Graphics/SVG/1.1/DTD/svg11.dtd">
<!-- Generated by graphviz version 2.43.0 (0)
 -->
<!-- Title: FiftyOne.IpIntelligence.Engine.OnPremise.Interop.WeightedStringListSwig Pages: 1 -->
<svg width="400pt" height="138pt"
 viewBox="0.00 0.00 400.00 138.00" xmlns="http://www.w3.org/2000/svg" xmlns:xlink="http://www.w3.org/1999/xlink">
<g id="graph0" class="graph" transform="scale(1 1) rotate(0) translate(4 134)">
<title>FiftyOne.IpIntelligence.Engine.OnPremise.Interop.WeightedStringListSwig</title>
<!-- Node4 -->
<g id="node1" class="node">
<title>Node4</title>
<g id="a_node1"><a xlink:title=" ">
<polygon fill="#bfbfbf" stroke="black" points="200,-55.5 200,-96.5 392,-96.5 392,-55.5 200,-55.5"/>
<text text-anchor="start" x="208" y="-84.5" font-family="Helvetica,sans-Serif" font-size="10.00">FiftyOne.IpIntelligence.</text>
<text text-anchor="start" x="208" y="-73.5" font-family="Helvetica,sans-Serif" font-size="10.00">Engine.OnPremise.Interop.Weighted</text>
<text text-anchor="middle" x="296" y="-62.5" font-family="Helvetica,sans-Serif" font-size="10.00">StringListSwig</text>
</a>
</g>
</g>
<!-- Node5 -->
<g id="node2" class="node">
<title>Node5</title>
<g id="a_node2"><a xlink:title=" ">
<polygon fill="none" stroke="#bfbfbf" points="9,-110.5 9,-129.5 155,-129.5 155,-110.5 9,-110.5"/>
<text text-anchor="middle" x="82" y="-117.5" font-family="Helvetica,sans-Serif" font-size="10.00">global::SystemIDisposable</text>
</a>
</g>
</g>
<!-- Node5&#45;&gt;Node4 -->
<g id="edge1" class="edge">
<title>Node5&#45;&gt;Node4</title>
<path fill="none" stroke="midnightblue" d="M138.82,-108.41C157.56,-104.53 179.01,-100.07 199.89,-95.74"/>
<polygon fill="midnightblue" stroke="midnightblue" points="138.08,-104.99 129,-110.45 139.5,-111.85 138.08,-104.99"/>
</g>
<!-- Node6 -->
<g id="node3" class="node">
<title>Node6</title>
<g id="a_node3"><a xlink:title=" ">
<polygon fill="none" stroke="#bfbfbf" points="10.5,-61 10.5,-91 153.5,-91 153.5,-61 10.5,-61"/>
<text text-anchor="start" x="18.5" y="-79" font-family="Helvetica,sans-Serif" font-size="10.00">global::SystemCollections</text>
<text text-anchor="middle" x="82" y="-68" font-family="Helvetica,sans-Serif" font-size="10.00">::IEnumerable</text>
</a>
</g>
</g>
<!-- Node6&#45;&gt;Node4 -->
<g id="edge2" class="edge">
<title>Node6&#45;&gt;Node4</title>
<path fill="none" stroke="midnightblue" d="M163.81,-76C175.58,-76 187.79,-76 199.81,-76"/>
<polygon fill="midnightblue" stroke="midnightblue" points="163.59,-72.5 153.59,-76 163.59,-79.5 163.59,-72.5"/>
</g>
<!-- Node7 -->
<g id="node4" class="node">
<title>Node7</title>
<g id="a_node4"><a xlink:title=" ">
<polygon fill="none" stroke="#bfbfbf" points="0,-0.5 0,-41.5 164,-41.5 164,-0.5 0,-0.5"/>
<text text-anchor="start" x="8" y="-29.5" font-family="Helvetica,sans-Serif" font-size="10.00">global::SystemCollections</text>
<text text-anchor="start" x="8" y="-18.5" font-family="Helvetica,sans-Serif" font-size="10.00">::Generic::IEnumerable</text>
<text text-anchor="middle" x="82" y="-7.5" font-family="Helvetica,sans-Serif" font-size="10.00">&lt; WeightedValueStringSwig &gt;</text>
</a>
</g>
</g>
<!-- Node7&#45;&gt;Node4 -->
<g id="edge3" class="edge">
<title>Node7&#45;&gt;Node4</title>
<path fill="none" stroke="midnightblue" d="M172.2,-44.14C186.69,-47.9 201.62,-51.77 215.85,-55.47"/>
<polygon fill="midnightblue" stroke="midnightblue" points="172.8,-40.68 162.24,-41.56 171.04,-47.46 172.8,-40.68"/>
</g>
</g>
</svg>
