<?xml version="1.0" encoding="UTF-8" standalone="no"?>
<!DOCTYPE svg PUBLIC "-//W3C//DTD SVG 1.1//EN"
 "http://www.w3.org/Graphics/SVG/1.1/DTD/svg11.dtd">
<!-- Generated by graphviz version 2.43.0 (0)
 -->
<!-- Title: FiftyOne.IpIntelligence.Engine.OnPremise.FlowElements.IpiOnPremiseEngineBuilder Pages: 1 -->
<svg width="950pt" height="61pt"
 viewBox="0.00 0.00 950.00 61.00" xmlns="http://www.w3.org/2000/svg" xmlns:xlink="http://www.w3.org/1999/xlink">
<g id="graph0" class="graph" transform="scale(1 1) rotate(0) translate(4 57)">
<title>FiftyOne.IpIntelligence.Engine.OnPremise.FlowElements.IpiOnPremiseEngineBuilder</title>
<!-- Node4 -->
<g id="node1" class="node">
<title>Node4</title>
<g id="a_node1"><a xlink:title="Builder for the IpiOnPremiseEngine.">
<polygon fill="#bfbfbf" stroke="black" points="761,-6 761,-47 942,-47 942,-6 761,-6"/>
<text text-anchor="start" x="769" y="-35" font-family="Helvetica,sans-Serif" font-size="10.00">FiftyOne.IpIntelligence.</text>
<text text-anchor="start" x="769" y="-24" font-family="Helvetica,sans-Serif" font-size="10.00">Engine.OnPremise.FlowElements.</text>
<text text-anchor="middle" x="851.5" y="-13" font-family="Helvetica,sans-Serif" font-size="10.00">IpiOnPremiseEngineBuilder</text>
</a>
</g>
</g>
<!-- Node5 -->
<g id="node2" class="node">
<title>Node5</title>
<g id="a_node2"><a xlink:href="class_fifty_one_1_1_ip_intelligence_1_1_engine_1_1_on_premise_1_1_flow_elements_1_1_ipi_on_premise_engine_builder_base.html" target="_top" xlink:title=" ">
<polygon fill="none" stroke="black" points="563,-11.5 563,-41.5 724,-41.5 724,-11.5 563,-11.5"/>
<text text-anchor="start" x="571" y="-29.5" font-family="Helvetica,sans-Serif" font-size="10.00">IpiOnPremiseEngineBuilder</text>
<text text-anchor="middle" x="643.5" y="-18.5" font-family="Helvetica,sans-Serif" font-size="10.00">Base&lt; IpiOnPremiseEngine &gt;</text>
</a>
</g>
</g>
<!-- Node5&#45;&gt;Node4 -->
<g id="edge1" class="edge">
<title>Node5&#45;&gt;Node4</title>
<path fill="none" stroke="midnightblue" d="M734.36,-26.5C743.13,-26.5 752.02,-26.5 760.79,-26.5"/>
<polygon fill="midnightblue" stroke="midnightblue" points="734.15,-23 724.14,-26.5 734.14,-30 734.15,-23"/>
</g>
<!-- Node6 -->
<g id="node3" class="node">
<title>Node6</title>
<g id="a_node3"><a xlink:href="class_fifty_one_1_1_ip_intelligence_1_1_engine_1_1_on_premise_1_1_flow_elements_1_1_ipi_on_premise_engine_builder_base.html" target="_top" xlink:title="Builder for the IpiOnPremiseEngine.">
<polygon fill="none" stroke="black" points="222,-0.5 222,-52.5 403,-52.5 403,-0.5 222,-0.5"/>
<text text-anchor="start" x="230" y="-40.5" font-family="Helvetica,sans-Serif" font-size="10.00">FiftyOne.IpIntelligence.</text>
<text text-anchor="start" x="230" y="-29.5" font-family="Helvetica,sans-Serif" font-size="10.00">Engine.OnPremise.FlowElements.</text>
<text text-anchor="start" x="230" y="-18.5" font-family="Helvetica,sans-Serif" font-size="10.00">IpiOnPremiseEngineBuilderBase</text>
<text text-anchor="middle" x="312.5" y="-7.5" font-family="Helvetica,sans-Serif" font-size="10.00">&lt; TEngine &gt;</text>
</a>
</g>
</g>
<!-- Node6&#45;&gt;Node5 -->
<g id="edge2" class="edge">
<title>Node6&#45;&gt;Node5</title>
<path fill="none" stroke="orange" stroke-dasharray="5,2" d="M413.48,-26.5C461.35,-26.5 517.88,-26.5 562.81,-26.5"/>
<polygon fill="orange" stroke="orange" points="413.4,-23 403.4,-26.5 413.4,-30 413.4,-23"/>
<text text-anchor="middle" x="483" y="-29.5" font-family="Helvetica,sans-Serif" font-size="10.00"> &lt; IpiOnPremiseEngine &gt;</text>
</g>
<!-- Node7 -->
<g id="node4" class="node">
<title>Node7</title>
<g id="a_node4"><a xlink:title=" ">
<polygon fill="none" stroke="#bfbfbf" points="0,-6 0,-47 185,-47 185,-6 0,-6"/>
<text text-anchor="start" x="8" y="-35" font-family="Helvetica,sans-Serif" font-size="10.00">OnPremiseIpiEngineBuilder</text>
<text text-anchor="start" x="8" y="-24" font-family="Helvetica,sans-Serif" font-size="10.00">Base&lt; IpiOnPremiseEngineBuilder</text>
<text text-anchor="middle" x="92.5" y="-13" font-family="Helvetica,sans-Serif" font-size="10.00">Base&lt; TEngine &gt;, TEngine &gt;</text>
</a>
</g>
</g>
<!-- Node7&#45;&gt;Node6 -->
<g id="edge3" class="edge">
<title>Node7&#45;&gt;Node6</title>
<path fill="none" stroke="midnightblue" d="M195.09,-26.5C204.07,-26.5 213.11,-26.5 221.98,-26.5"/>
<polygon fill="midnightblue" stroke="midnightblue" points="195,-23 185,-26.5 195,-30 195,-23"/>
</g>
</g>
</svg>
