<?xml version="1.0" encoding="UTF-8" standalone="no"?>
<!DOCTYPE svg PUBLIC "-//W3C//DTD SVG 1.1//EN"
 "http://www.w3.org/Graphics/SVG/1.1/DTD/svg11.dtd">
<!-- Generated by graphviz version 2.43.0 (0)
 -->
<!-- Title: FiftyOne.IpIntelligence.Engine.OnPremise.Interop.WeightedIntListSwig.WeightedIntListSwigEnumerator Pages: 1 -->
<svg width="421pt" height="100pt"
 viewBox="0.00 0.00 421.00 99.50" xmlns="http://www.w3.org/2000/svg" xmlns:xlink="http://www.w3.org/1999/xlink">
<g id="graph0" class="graph" transform="scale(1 1) rotate(0) translate(4 95.5)">
<title>FiftyOne.IpIntelligence.Engine.OnPremise.Interop.WeightedIntListSwig.WeightedIntListSwigEnumerator</title>
<!-- Node3 -->
<g id="node1" class="node">
<title>Node3</title>
<g id="a_node1"><a xlink:title="Note that the IEnumerator documentation requires an InvalidOperationException to be thrown whenever t...">
<polygon fill="#bfbfbf" stroke="black" points="184,-27.5 184,-68.5 413,-68.5 413,-27.5 184,-27.5"/>
<text text-anchor="start" x="192" y="-56.5" font-family="Helvetica,sans-Serif" font-size="10.00">FiftyOne.IpIntelligence.</text>
<text text-anchor="start" x="192" y="-45.5" font-family="Helvetica,sans-Serif" font-size="10.00">Engine.OnPremise.Interop.Weighted</text>
<text text-anchor="middle" x="298.5" y="-34.5" font-family="Helvetica,sans-Serif" font-size="10.00">IntListSwig.WeightedIntListSwigEnumerator</text>
</a>
</g>
</g>
<!-- Node4 -->
<g id="node2" class="node">
<title>Node4</title>
<g id="a_node2"><a xlink:title=" ">
<polygon fill="none" stroke="#bfbfbf" points="2.5,-61 2.5,-91 145.5,-91 145.5,-61 2.5,-61"/>
<text text-anchor="start" x="10.5" y="-79" font-family="Helvetica,sans-Serif" font-size="10.00">global::SystemCollections</text>
<text text-anchor="middle" x="74" y="-68" font-family="Helvetica,sans-Serif" font-size="10.00">::IEnumerator</text>
</a>
</g>
</g>
<!-- Node4&#45;&gt;Node3 -->
<g id="edge1" class="edge">
<title>Node4&#45;&gt;Node3</title>
<path fill="none" stroke="midnightblue" d="M155.88,-65.82C165.02,-64.67 174.45,-63.48 183.91,-62.29"/>
<polygon fill="midnightblue" stroke="midnightblue" points="155.19,-62.38 145.71,-67.1 156.06,-69.33 155.19,-62.38"/>
</g>
<!-- Node5 -->
<g id="node3" class="node">
<title>Node5</title>
<g id="a_node3"><a xlink:title=" ">
<polygon fill="none" stroke="#bfbfbf" points="0,-0.5 0,-41.5 148,-41.5 148,-0.5 0,-0.5"/>
<text text-anchor="start" x="8" y="-29.5" font-family="Helvetica,sans-Serif" font-size="10.00">global::SystemCollections</text>
<text text-anchor="start" x="8" y="-18.5" font-family="Helvetica,sans-Serif" font-size="10.00">::Generic::IEnumerator</text>
<text text-anchor="middle" x="74" y="-7.5" font-family="Helvetica,sans-Serif" font-size="10.00">&lt; WeightedValueIntSwig &gt;</text>
</a>
</g>
</g>
<!-- Node5&#45;&gt;Node3 -->
<g id="edge2" class="edge">
<title>Node5&#45;&gt;Node3</title>
<path fill="none" stroke="midnightblue" d="M158.19,-31.09C166.51,-32.1 175.05,-33.14 183.62,-34.18"/>
<polygon fill="midnightblue" stroke="midnightblue" points="158.51,-27.61 148.16,-29.88 157.67,-34.56 158.51,-27.61"/>
</g>
</g>
</svg>
