<?xml version="1.0" encoding="UTF-8" standalone="no"?>
<!DOCTYPE svg PUBLIC "-//W3C//DTD SVG 1.1//EN"
 "http://www.w3.org/Graphics/SVG/1.1/DTD/svg11.dtd">
<!-- Generated by graphviz version 2.43.0 (0)
 -->
<!-- Title: FiftyOne.IpIntelligence.Engine.OnPremise.Wrappers.RequiredPropertiesConfigSwigWrapper Pages: 1 -->
<svg width="654pt" height="100pt"
 viewBox="0.00 0.00 654.00 99.50" xmlns="http://www.w3.org/2000/svg" xmlns:xlink="http://www.w3.org/1999/xlink">
<g id="graph0" class="graph" transform="scale(1 1) rotate(0) translate(4 95.5)">
<title>FiftyOne.IpIntelligence.Engine.OnPremise.Wrappers.RequiredPropertiesConfigSwigWrapper</title>
<!-- Node2 -->
<g id="node1" class="node">
<title>Node2</title>
<g id="a_node1"><a xlink:title=" ">
<polygon fill="#bfbfbf" stroke="black" points="444,-28.5 444,-69.5 646,-69.5 646,-28.5 444,-28.5"/>
<text text-anchor="start" x="452" y="-57.5" font-family="Helvetica,sans-Serif" font-size="10.00">FiftyOne.IpIntelligence.</text>
<text text-anchor="start" x="452" y="-46.5" font-family="Helvetica,sans-Serif" font-size="10.00">Engine.OnPremise.Wrappers.Required</text>
<text text-anchor="middle" x="545" y="-35.5" font-family="Helvetica,sans-Serif" font-size="10.00">PropertiesConfigSwigWrapper</text>
</a>
</g>
</g>
<!-- Node3 -->
<g id="node2" class="node">
<title>Node3</title>
<g id="a_node2"><a xlink:href="interface_fifty_one_1_1_ip_intelligence_1_1_engine_1_1_on_premise_1_1_wrappers_1_1_i_required_properties_config_swig_wrapper.html" target="_top" xlink:title=" ">
<polygon fill="none" stroke="black" points="206.5,-61 206.5,-91 349.5,-91 349.5,-61 206.5,-61"/>
<text text-anchor="start" x="214.5" y="-79" font-family="Helvetica,sans-Serif" font-size="10.00">IRequiredPropertiesConfig</text>
<text text-anchor="middle" x="278" y="-68" font-family="Helvetica,sans-Serif" font-size="10.00">SwigWrapper</text>
</a>
</g>
</g>
<!-- Node3&#45;&gt;Node2 -->
<g id="edge1" class="edge">
<title>Node3&#45;&gt;Node2</title>
<path fill="none" stroke="midnightblue" d="M359.65,-67.78C386.13,-65.08 415.9,-62.05 443.66,-59.22"/>
<polygon fill="midnightblue" stroke="midnightblue" points="359.26,-64.3 349.67,-68.8 359.97,-71.27 359.26,-64.3"/>
</g>
<!-- Node4 -->
<g id="node3" class="node">
<title>Node4</title>
<g id="a_node3"><a xlink:href="class_fifty_one_1_1_ip_intelligence_1_1_engine_1_1_on_premise_1_1_interop_1_1_required_properties_config_swig.html" target="_top" xlink:title=" ">
<polygon fill="none" stroke="black" points="183,-0.5 183,-41.5 373,-41.5 373,-0.5 183,-0.5"/>
<text text-anchor="start" x="191" y="-29.5" font-family="Helvetica,sans-Serif" font-size="10.00">FiftyOne.IpIntelligence.</text>
<text text-anchor="start" x="191" y="-18.5" font-family="Helvetica,sans-Serif" font-size="10.00">Engine.OnPremise.Interop.Required</text>
<text text-anchor="middle" x="278" y="-7.5" font-family="Helvetica,sans-Serif" font-size="10.00">PropertiesConfigSwig</text>
</a>
</g>
</g>
<!-- Node4&#45;&gt;Node2 -->
<g id="edge2" class="edge">
<title>Node4&#45;&gt;Node2</title>
<path fill="none" stroke="#9a32cd" stroke-dasharray="5,2" d="M383.2,-32.01C403.16,-34.12 424.02,-36.32 443.84,-38.42"/>
<polygon fill="#9a32cd" stroke="#9a32cd" points="383.49,-28.52 373.18,-30.95 382.75,-35.48 383.49,-28.52"/>
<text text-anchor="middle" x="408.5" y="-39" font-family="Helvetica,sans-Serif" font-size="10.00"> Object</text>
</g>
<!-- Node5 -->
<g id="node4" class="node">
<title>Node5</title>
<g id="a_node4"><a xlink:title=" ">
<polygon fill="none" stroke="#bfbfbf" points="0,-11.5 0,-30.5 146,-30.5 146,-11.5 0,-11.5"/>
<text text-anchor="middle" x="73" y="-18.5" font-family="Helvetica,sans-Serif" font-size="10.00">global::SystemIDisposable</text>
</a>
</g>
</g>
<!-- Node5&#45;&gt;Node4 -->
<g id="edge3" class="edge">
<title>Node5&#45;&gt;Node4</title>
<path fill="none" stroke="midnightblue" d="M156.26,-21C164.98,-21 173.89,-21 182.72,-21"/>
<polygon fill="midnightblue" stroke="midnightblue" points="156.14,-17.5 146.14,-21 156.14,-24.5 156.14,-17.5"/>
</g>
</g>
</svg>
