<?xml version="1.0" encoding="UTF-8" standalone="no"?>
<!DOCTYPE svg PUBLIC "-//W3C//DTD SVG 1.1//EN"
 "http://www.w3.org/Graphics/SVG/1.1/DTD/svg11.dtd">
<!-- Generated by graphviz version 2.43.0 (0)
 -->
<!-- Title: FiftyOne.IpIntelligence.Engine.OnPremise.Data.ValueMetaData Pages: 1 -->
<svg width="218pt" height="95pt"
 viewBox="0.00 0.00 218.00 95.00" xmlns="http://www.w3.org/2000/svg" xmlns:xlink="http://www.w3.org/1999/xlink">
<g id="graph0" class="graph" transform="scale(1 1) rotate(0) translate(4 91)">
<title>FiftyOne.IpIntelligence.Engine.OnPremise.Data.ValueMetaData</title>
<!-- Node3 -->
<g id="node1" class="node">
<title>Node3</title>
<g id="a_node1"><a xlink:title="Data class that contains meta&#45;data relating to a specific value.">
<polygon fill="#bfbfbf" stroke="black" points="0,-0.5 0,-30.5 210,-30.5 210,-0.5 0,-0.5"/>
<text text-anchor="start" x="8" y="-18.5" font-family="Helvetica,sans-Serif" font-size="10.00">FiftyOne.IpIntelligence.</text>
<text text-anchor="middle" x="105" y="-7.5" font-family="Helvetica,sans-Serif" font-size="10.00">Engine.OnPremise.Data.ValueMetaData</text>
</a>
</g>
</g>
<!-- Node4 -->
<g id="node2" class="node">
<title>Node4</title>
<g id="a_node2"><a xlink:title=" ">
<polygon fill="none" stroke="#bfbfbf" points="6.5,-67.5 6.5,-86.5 101.5,-86.5 101.5,-67.5 6.5,-67.5"/>
<text text-anchor="middle" x="54" y="-74.5" font-family="Helvetica,sans-Serif" font-size="10.00">IValueMetaData</text>
</a>
</g>
</g>
<!-- Node4&#45;&gt;Node3 -->
<g id="edge1" class="edge">
<title>Node4&#45;&gt;Node3</title>
<path fill="none" stroke="midnightblue" d="M67.88,-59.81C75.73,-50.65 85.45,-39.3 92.98,-30.52"/>
<polygon fill="midnightblue" stroke="midnightblue" points="65.16,-57.6 61.31,-67.48 70.47,-62.16 65.16,-57.6"/>
</g>
<!-- Node5 -->
<g id="node3" class="node">
<title>Node5</title>
<g id="a_node3"><a xlink:title=" ">
<polygon fill="none" stroke="#bfbfbf" points="120,-67.5 120,-86.5 194,-86.5 194,-67.5 120,-67.5"/>
<text text-anchor="middle" x="157" y="-74.5" font-family="Helvetica,sans-Serif" font-size="10.00">IDisposable</text>
</a>
</g>
</g>
<!-- Node5&#45;&gt;Node3 -->
<g id="edge2" class="edge">
<title>Node5&#45;&gt;Node3</title>
<path fill="none" stroke="midnightblue" d="M142.85,-59.81C134.84,-50.65 124.93,-39.3 117.26,-30.52"/>
<polygon fill="midnightblue" stroke="midnightblue" points="140.33,-62.25 149.55,-67.48 145.6,-57.64 140.33,-62.25"/>
</g>
</g>
</svg>
