<?xml version="1.0" encoding="UTF-8" standalone="no"?>
<!DOCTYPE svg PUBLIC "-//W3C//DTD SVG 1.1//EN"
 "http://www.w3.org/Graphics/SVG/1.1/DTD/svg11.dtd">
<!-- Generated by graphviz version 2.43.0 (0)
 -->
<!-- Title: Graphical Class Hierarchy Pages: 1 -->
<svg width="390pt" height="290pt"
 viewBox="0.00 0.00 390.00 290.00" xmlns="http://www.w3.org/2000/svg" xmlns:xlink="http://www.w3.org/1999/xlink">
<g id="graph0" class="graph" transform="scale(1 1) rotate(0) translate(4 286)">
<title>Graphical Class Hierarchy</title>
<!-- Node0 -->
<g id="node1" class="node">
<title>Node0</title>
<g id="a_node1"><a xlink:href="class_fifty_one_1_1_ip_intelligence_1_1_examples_1_1_example_base.html" target="_top" xlink:title=" ">
<polygon fill="none" stroke="black" points="0,-126 0,-156 134,-156 134,-126 0,-126"/>
<text text-anchor="start" x="8" y="-144" font-family="Helvetica,sans-Serif" font-size="10.00">FiftyOne.IpIntelligence.</text>
<text text-anchor="middle" x="67" y="-133" font-family="Helvetica,sans-Serif" font-size="10.00">Examples.ExampleBase</text>
</a>
</g>
</g>
<!-- Node1 -->
<g id="node2" class="node">
<title>Node1</title>
<g id="a_node2"><a xlink:href="class_fifty_one_1_1_ip_intelligence_1_1_examples_1_1_on_premise_1_1_getting_started_console_1_1_program_1_1_example.html" target="_top" xlink:title=" ">
<polygon fill="none" stroke="black" points="178.5,-240.5 178.5,-281.5 373.5,-281.5 373.5,-240.5 178.5,-240.5"/>
<text text-anchor="start" x="186.5" y="-269.5" font-family="Helvetica,sans-Serif" font-size="10.00">FiftyOne.IpIntelligence.</text>
<text text-anchor="start" x="186.5" y="-258.5" font-family="Helvetica,sans-Serif" font-size="10.00">Examples.OnPremise.GettingStarted</text>
<text text-anchor="middle" x="276" y="-247.5" font-family="Helvetica,sans-Serif" font-size="10.00">Console.Program.Example</text>
</a>
</g>
</g>
<!-- Node0&#45;&gt;Node1 -->
<g id="edge1" class="edge">
<title>Node0&#45;&gt;Node1</title>
<path fill="none" stroke="midnightblue" d="M87.97,-163.62C107.12,-184 137.81,-213.39 170,-231 176.4,-234.5 183.26,-237.63 190.28,-240.42"/>
<polygon fill="midnightblue" stroke="midnightblue" points="90.32,-161.01 80.97,-156.03 85.18,-165.76 90.32,-161.01"/>
</g>
<!-- Node2 -->
<g id="node3" class="node">
<title>Node2</title>
<g id="a_node3"><a xlink:href="class_fifty_one_1_1_ip_intelligence_1_1_examples_1_1_on_premise_1_1_metadata_1_1_program_1_1_example.html" target="_top" xlink:title=" ">
<polygon fill="none" stroke="black" points="189.5,-180.5 189.5,-221.5 362.5,-221.5 362.5,-180.5 189.5,-180.5"/>
<text text-anchor="start" x="197.5" y="-209.5" font-family="Helvetica,sans-Serif" font-size="10.00">FiftyOne.IpIntelligence.</text>
<text text-anchor="start" x="197.5" y="-198.5" font-family="Helvetica,sans-Serif" font-size="10.00">Examples.OnPremise.Metadata.</text>
<text text-anchor="middle" x="276" y="-187.5" font-family="Helvetica,sans-Serif" font-size="10.00">Program.Example</text>
</a>
</g>
</g>
<!-- Node0&#45;&gt;Node2 -->
<g id="edge2" class="edge">
<title>Node0&#45;&gt;Node2</title>
<path fill="none" stroke="midnightblue" d="M128.58,-158.9C142.2,-162.9 156.59,-167.11 170,-171 180.65,-174.09 191.92,-177.33 202.96,-180.5"/>
<polygon fill="midnightblue" stroke="midnightblue" points="129.4,-155.5 118.82,-156.03 127.43,-162.21 129.4,-155.5"/>
</g>
<!-- Node3 -->
<g id="node4" class="node">
<title>Node3</title>
<g id="a_node4"><a xlink:href="class_fifty_one_1_1_ip_intelligence_1_1_examples_1_1_on_premise_1_1_offline_processing_1_1_program_1_1_example.html" target="_top" xlink:title=" ">
<polygon fill="none" stroke="black" points="170,-120.5 170,-161.5 382,-161.5 382,-120.5 170,-120.5"/>
<text text-anchor="start" x="178" y="-149.5" font-family="Helvetica,sans-Serif" font-size="10.00">FiftyOne.IpIntelligence.</text>
<text text-anchor="start" x="178" y="-138.5" font-family="Helvetica,sans-Serif" font-size="10.00">Examples.OnPremise.OfflineProcessing.</text>
<text text-anchor="middle" x="276" y="-127.5" font-family="Helvetica,sans-Serif" font-size="10.00">Program.Example</text>
</a>
</g>
</g>
<!-- Node0&#45;&gt;Node3 -->
<g id="edge3" class="edge">
<title>Node0&#45;&gt;Node3</title>
<path fill="none" stroke="midnightblue" d="M144.18,-141C152.59,-141 161.26,-141 169.94,-141"/>
<polygon fill="midnightblue" stroke="midnightblue" points="144.07,-137.5 134.07,-141 144.07,-144.5 144.07,-137.5"/>
</g>
<!-- Node4 -->
<g id="node5" class="node">
<title>Node4</title>
<g id="a_node5"><a xlink:href="class_fifty_one_1_1_ip_intelligence_1_1_examples_1_1_on_premise_1_1_performance_1_1_program_1_1_example.html" target="_top" xlink:title=" ">
<polygon fill="none" stroke="black" points="181.5,-60.5 181.5,-101.5 370.5,-101.5 370.5,-60.5 181.5,-60.5"/>
<text text-anchor="start" x="189.5" y="-89.5" font-family="Helvetica,sans-Serif" font-size="10.00">FiftyOne.IpIntelligence.</text>
<text text-anchor="start" x="189.5" y="-78.5" font-family="Helvetica,sans-Serif" font-size="10.00">Examples.OnPremise.Performance.</text>
<text text-anchor="middle" x="276" y="-67.5" font-family="Helvetica,sans-Serif" font-size="10.00">Program.Example</text>
</a>
</g>
</g>
<!-- Node0&#45;&gt;Node4 -->
<g id="edge4" class="edge">
<title>Node0&#45;&gt;Node4</title>
<path fill="none" stroke="midnightblue" d="M128.58,-123.1C142.2,-119.1 156.59,-114.89 170,-111 180.65,-107.91 191.92,-104.67 202.96,-101.5"/>
<polygon fill="midnightblue" stroke="midnightblue" points="127.43,-119.79 118.82,-125.97 129.4,-126.5 127.43,-119.79"/>
</g>
<!-- Node5 -->
<g id="node6" class="node">
<title>Node5</title>
<g id="a_node6"><a xlink:href="class_fifty_one_1_1_ip_intelligence_1_1_examples_1_1_on_premise_1_1_update_data_file_1_1_program_1_1_example.html" target="_top" xlink:title=" ">
<polygon fill="none" stroke="black" points="185,-0.5 185,-41.5 367,-41.5 367,-0.5 185,-0.5"/>
<text text-anchor="start" x="193" y="-29.5" font-family="Helvetica,sans-Serif" font-size="10.00">FiftyOne.IpIntelligence.</text>
<text text-anchor="start" x="193" y="-18.5" font-family="Helvetica,sans-Serif" font-size="10.00">Examples.OnPremise.UpdateData</text>
<text text-anchor="middle" x="276" y="-7.5" font-family="Helvetica,sans-Serif" font-size="10.00">File.Program.Example</text>
</a>
</g>
</g>
<!-- Node0&#45;&gt;Node5 -->
<g id="edge5" class="edge">
<title>Node0&#45;&gt;Node5</title>
<path fill="none" stroke="midnightblue" d="M87.97,-118.38C107.12,-98 137.81,-68.61 170,-51 176.4,-47.5 183.26,-44.37 190.28,-41.58"/>
<polygon fill="midnightblue" stroke="midnightblue" points="85.18,-116.24 80.97,-125.97 90.32,-120.99 85.18,-116.24"/>
</g>
</g>
</svg>
