<?xml version="1.0" encoding="UTF-8" standalone="no"?>
<!DOCTYPE svg PUBLIC "-//W3C//DTD SVG 1.1//EN"
 "http://www.w3.org/Graphics/SVG/1.1/DTD/svg11.dtd">
<!-- Generated by graphviz version 2.43.0 (0)
 -->
<!-- Title: Graphical Class Hierarchy Pages: 1 -->
<svg width="463pt" height="516pt"
 viewBox="0.00 0.00 463.00 515.50" xmlns="http://www.w3.org/2000/svg" xmlns:xlink="http://www.w3.org/1999/xlink">
<g id="graph0" class="graph" transform="scale(1 1) rotate(0) translate(4 511.5)">
<title>Graphical Class Hierarchy</title>
<!-- Node118 -->
<g id="node1" class="node">
<title>Node118</title>
<g id="a_node1"><a xlink:title=" ">
<polygon fill="none" stroke="#bfbfbf" points="47.5,-252.5 47.5,-271.5 124.5,-271.5 124.5,-252.5 47.5,-252.5"/>
<text text-anchor="middle" x="86" y="-259.5" font-family="Helvetica,sans-Serif" font-size="10.00">IEnumerator</text>
</a>
</g>
</g>
<!-- Node0 -->
<g id="node2" class="node">
<title>Node0</title>
<g id="a_node2"><a xlink:href="class_fifty_one_1_1_ip_intelligence_1_1_engine_1_1_on_premise_1_1_interop_1_1_map_string_string_afc829270b0fda0cf022c534f8fd28ee.html" target="_top" xlink:title="Note that the IEnumerator documentation requires an InvalidOperationException to be thrown whenever t...">
<polygon fill="none" stroke="black" points="231,-455 231,-507 432,-507 432,-455 231,-455"/>
<text text-anchor="start" x="239" y="-495" font-family="Helvetica,sans-Serif" font-size="10.00">FiftyOne.IpIntelligence.</text>
<text text-anchor="start" x="239" y="-484" font-family="Helvetica,sans-Serif" font-size="10.00">Engine.OnPremise.Interop.Map</text>
<text text-anchor="start" x="239" y="-473" font-family="Helvetica,sans-Serif" font-size="10.00">StringStringSwig.MapStringStringSwig</text>
<text text-anchor="middle" x="331.5" y="-462" font-family="Helvetica,sans-Serif" font-size="10.00">Enumerator</text>
</a>
</g>
</g>
<!-- Node118&#45;&gt;Node0 -->
<g id="edge1" class="edge">
<title>Node118&#45;&gt;Node0</title>
<path fill="none" stroke="midnightblue" d="M94.37,-281.5C109.62,-319.18 148.27,-402.11 208,-446 215.04,-451.17 222.82,-455.58 230.96,-459.34"/>
<polygon fill="midnightblue" stroke="midnightblue" points="97.45,-279.78 90.54,-271.75 90.94,-282.34 97.45,-279.78"/>
</g>
<!-- Node111 -->
<g id="node3" class="node">
<title>Node111</title>
<g id="a_node3"><a xlink:href="class_fifty_one_1_1_ip_intelligence_1_1_engine_1_1_on_premise_1_1_interop_1_1_u_t_f8_string_swig93f4cce6d61ca5f20ae6abf29399e8e6.html" target="_top" xlink:title="Note that the IEnumerator documentation requires an InvalidOperationException to be thrown whenever t...">
<polygon fill="none" stroke="black" points="228.5,-252.5 228.5,-293.5 434.5,-293.5 434.5,-252.5 228.5,-252.5"/>
<text text-anchor="start" x="236.5" y="-281.5" font-family="Helvetica,sans-Serif" font-size="10.00">FiftyOne.IpIntelligence.</text>
<text text-anchor="start" x="236.5" y="-270.5" font-family="Helvetica,sans-Serif" font-size="10.00">Engine.OnPremise.Interop.UTF8</text>
<text text-anchor="middle" x="331.5" y="-259.5" font-family="Helvetica,sans-Serif" font-size="10.00">StringSwig.UTF8StringSwigEnumerator</text>
</a>
</g>
</g>
<!-- Node118&#45;&gt;Node111 -->
<g id="edge2" class="edge">
<title>Node118&#45;&gt;Node111</title>
<path fill="none" stroke="midnightblue" d="M134.74,-264.16C161.51,-265.37 195.97,-266.92 228.49,-268.39"/>
<polygon fill="midnightblue" stroke="midnightblue" points="134.66,-260.65 124.51,-263.69 134.35,-267.64 134.66,-260.65"/>
</g>
<!-- Node112 -->
<g id="node4" class="node">
<title>Node112</title>
<g id="a_node4"><a xlink:href="class_fifty_one_1_1_ip_intelligence_1_1_engine_1_1_on_premise_1_1_interop_1_1_vector_string_swig452eeae6ddefab7107be9b48b95f3874.html" target="_top" xlink:title="Note that the IEnumerator documentation requires an InvalidOperationException to be thrown whenever t...">
<polygon fill="none" stroke="black" points="226,-192.5 226,-233.5 437,-233.5 437,-192.5 226,-192.5"/>
<text text-anchor="start" x="234" y="-221.5" font-family="Helvetica,sans-Serif" font-size="10.00">FiftyOne.IpIntelligence.</text>
<text text-anchor="start" x="234" y="-210.5" font-family="Helvetica,sans-Serif" font-size="10.00">Engine.OnPremise.Interop.Vector</text>
<text text-anchor="middle" x="331.5" y="-199.5" font-family="Helvetica,sans-Serif" font-size="10.00">StringSwig.VectorStringSwigEnumerator</text>
</a>
</g>
</g>
<!-- Node118&#45;&gt;Node112 -->
<g id="edge3" class="edge">
<title>Node118&#45;&gt;Node112</title>
<path fill="none" stroke="midnightblue" d="M134.39,-252.46C161.21,-247.07 195.82,-240.1 228.49,-233.53"/>
<polygon fill="midnightblue" stroke="midnightblue" points="133.63,-249.05 124.51,-254.45 135.01,-255.91 133.63,-249.05"/>
</g>
<!-- Node113 -->
<g id="node5" class="node">
<title>Node113</title>
<g id="a_node5"><a xlink:href="class_fifty_one_1_1_ip_intelligence_1_1_engine_1_1_on_premise_1_1_interop_1_1_weighted_bool_list687255ffcae427f162c49217e79891d5.html" target="_top" xlink:title="Note that the IEnumerator documentation requires an InvalidOperationException to be thrown whenever t...">
<polygon fill="none" stroke="black" points="208,-132.5 208,-173.5 455,-173.5 455,-132.5 208,-132.5"/>
<text text-anchor="start" x="216" y="-161.5" font-family="Helvetica,sans-Serif" font-size="10.00">FiftyOne.IpIntelligence.</text>
<text text-anchor="start" x="216" y="-150.5" font-family="Helvetica,sans-Serif" font-size="10.00">Engine.OnPremise.Interop.Weighted</text>
<text text-anchor="middle" x="331.5" y="-139.5" font-family="Helvetica,sans-Serif" font-size="10.00">BoolListSwig.WeightedBoolListSwigEnumerator</text>
</a>
</g>
</g>
<!-- Node118&#45;&gt;Node113 -->
<g id="edge4" class="edge">
<title>Node118&#45;&gt;Node113</title>
<path fill="none" stroke="midnightblue" d="M134.64,-250.75C147.54,-246.27 160.98,-240.17 172,-232 193.7,-215.9 185.53,-198 208,-183 213.28,-179.47 218.94,-176.36 224.82,-173.62"/>
<polygon fill="midnightblue" stroke="midnightblue" points="133.37,-247.48 124.92,-253.86 135.51,-254.14 133.37,-247.48"/>
</g>
<!-- Node114 -->
<g id="node6" class="node">
<title>Node114</title>
<g id="a_node6"><a xlink:href="class_fifty_one_1_1_ip_intelligence_1_1_engine_1_1_on_premise_1_1_interop_1_1_weighted_double_li036fcb7432588bb1d64a85c15fd2bc88.html" target="_top" xlink:title="Note that the IEnumerator documentation requires an InvalidOperationException to be thrown whenever t...">
<polygon fill="none" stroke="black" points="224,-61 224,-113 439,-113 439,-61 224,-61"/>
<text text-anchor="start" x="232" y="-101" font-family="Helvetica,sans-Serif" font-size="10.00">FiftyOne.IpIntelligence.</text>
<text text-anchor="start" x="232" y="-90" font-family="Helvetica,sans-Serif" font-size="10.00">Engine.OnPremise.Interop.Weighted</text>
<text text-anchor="start" x="232" y="-79" font-family="Helvetica,sans-Serif" font-size="10.00">DoubleListSwig.WeightedDoubleListSwig</text>
<text text-anchor="middle" x="331.5" y="-68" font-family="Helvetica,sans-Serif" font-size="10.00">Enumerator</text>
</a>
</g>
</g>
<!-- Node118&#45;&gt;Node114 -->
<g id="edge5" class="edge">
<title>Node118&#45;&gt;Node114</title>
<path fill="none" stroke="midnightblue" d="M134.67,-253.46C148.19,-249.01 161.95,-242.25 172,-232 207.71,-195.56 171.33,-158.47 208,-123 212.78,-118.38 218.12,-114.34 223.83,-110.82"/>
<polygon fill="midnightblue" stroke="midnightblue" points="133.54,-250.15 124.92,-256.31 135.5,-256.86 133.54,-250.15"/>
</g>
<!-- Node115 -->
<g id="node7" class="node">
<title>Node115</title>
<g id="a_node7"><a xlink:href="class_fifty_one_1_1_ip_intelligence_1_1_engine_1_1_on_premise_1_1_interop_1_1_weighted_int_list_9c276fa810f30b06c3cdc1b93ea2afab.html" target="_top" xlink:title="Note that the IEnumerator documentation requires an InvalidOperationException to be thrown whenever t...">
<polygon fill="none" stroke="black" points="217,-0.5 217,-41.5 446,-41.5 446,-0.5 217,-0.5"/>
<text text-anchor="start" x="225" y="-29.5" font-family="Helvetica,sans-Serif" font-size="10.00">FiftyOne.IpIntelligence.</text>
<text text-anchor="start" x="225" y="-18.5" font-family="Helvetica,sans-Serif" font-size="10.00">Engine.OnPremise.Interop.Weighted</text>
<text text-anchor="middle" x="331.5" y="-7.5" font-family="Helvetica,sans-Serif" font-size="10.00">IntListSwig.WeightedIntListSwigEnumerator</text>
</a>
</g>
</g>
<!-- Node118&#45;&gt;Node115 -->
<g id="edge6" class="edge">
<title>Node118&#45;&gt;Node115</title>
<path fill="none" stroke="midnightblue" d="M134.75,-254.43C148.54,-250.02 162.44,-243.04 172,-232 225.71,-170.01 151.29,-110.25 208,-51 211.33,-47.52 214.99,-44.42 218.91,-41.65"/>
<polygon fill="midnightblue" stroke="midnightblue" points="133.49,-251.15 124.79,-257.21 135.37,-257.89 133.49,-251.15"/>
</g>
<!-- Node116 -->
<g id="node8" class="node">
<title>Node116</title>
<g id="a_node8"><a xlink:href="class_fifty_one_1_1_ip_intelligence_1_1_engine_1_1_on_premise_1_1_interop_1_1_weighted_string_liad3b5e00a7cb58314813a24440d0c1f5.html" target="_top" xlink:title="Note that the IEnumerator documentation requires an InvalidOperationException to be thrown whenever t...">
<polygon fill="none" stroke="black" points="230,-384 230,-436 433,-436 433,-384 230,-384"/>
<text text-anchor="start" x="238" y="-424" font-family="Helvetica,sans-Serif" font-size="10.00">FiftyOne.IpIntelligence.</text>
<text text-anchor="start" x="238" y="-413" font-family="Helvetica,sans-Serif" font-size="10.00">Engine.OnPremise.Interop.Weighted</text>
<text text-anchor="start" x="238" y="-402" font-family="Helvetica,sans-Serif" font-size="10.00">StringListSwig.WeightedStringListSwig</text>
<text text-anchor="middle" x="331.5" y="-391" font-family="Helvetica,sans-Serif" font-size="10.00">Enumerator</text>
</a>
</g>
</g>
<!-- Node118&#45;&gt;Node116 -->
<g id="edge7" class="edge">
<title>Node118&#45;&gt;Node116</title>
<path fill="none" stroke="midnightblue" d="M101.13,-279.68C121.95,-304.56 163.24,-349.68 208,-375 214.93,-378.92 222.33,-382.43 229.94,-385.57"/>
<polygon fill="midnightblue" stroke="midnightblue" points="103.71,-277.3 94.65,-271.79 98.3,-281.74 103.71,-277.3"/>
</g>
<!-- Node117 -->
<g id="node9" class="node">
<title>Node117</title>
<g id="a_node9"><a xlink:href="class_fifty_one_1_1_ip_intelligence_1_1_engine_1_1_on_premise_1_1_interop_1_1_weighted_u_t_f8_st865f5c639ab4fc06fc409320805505c2.html" target="_top" xlink:title="Note that the IEnumerator documentation requires an InvalidOperationException to be thrown whenever t...">
<polygon fill="none" stroke="black" points="224.5,-313 224.5,-365 438.5,-365 438.5,-313 224.5,-313"/>
<text text-anchor="start" x="232.5" y="-353" font-family="Helvetica,sans-Serif" font-size="10.00">FiftyOne.IpIntelligence.</text>
<text text-anchor="start" x="232.5" y="-342" font-family="Helvetica,sans-Serif" font-size="10.00">Engine.OnPremise.Interop.Weighted</text>
<text text-anchor="start" x="232.5" y="-331" font-family="Helvetica,sans-Serif" font-size="10.00">UTF8StringListSwig.WeightedUTF8String</text>
<text text-anchor="middle" x="331.5" y="-320" font-family="Helvetica,sans-Serif" font-size="10.00">ListSwigEnumerator</text>
</a>
</g>
</g>
<!-- Node118&#45;&gt;Node117 -->
<g id="edge8" class="edge">
<title>Node118&#45;&gt;Node117</title>
<path fill="none" stroke="midnightblue" d="M124.01,-274.98C147.9,-283.25 179.69,-294.05 208,-303 218.46,-306.31 229.46,-309.68 240.39,-312.98"/>
<polygon fill="midnightblue" stroke="midnightblue" points="124.88,-271.58 114.29,-271.6 122.59,-278.19 124.88,-271.58"/>
</g>
<!-- Node110 -->
<g id="node10" class="node">
<title>Node110</title>
<g id="a_node10"><a xlink:title=" ">
<polygon fill="none" stroke="#bfbfbf" points="47.5,-203.5 47.5,-222.5 124.5,-222.5 124.5,-203.5 47.5,-203.5"/>
<text text-anchor="middle" x="86" y="-210.5" font-family="Helvetica,sans-Serif" font-size="10.00">IEnumerator</text>
</a>
</g>
</g>
<!-- Node110&#45;&gt;Node111 -->
<g id="edge9" class="edge">
<title>Node110&#45;&gt;Node111</title>
<path fill="none" stroke="midnightblue" d="M134.5,-224.81C156.8,-230.35 183.76,-237.03 208,-243 220.44,-246.06 233.59,-249.3 246.47,-252.46"/>
<polygon fill="midnightblue" stroke="midnightblue" points="135.15,-221.37 124.6,-222.35 133.46,-228.16 135.15,-221.37"/>
</g>
<!-- Node110&#45;&gt;Node112 -->
<g id="edge10" class="edge">
<title>Node110&#45;&gt;Node112</title>
<path fill="none" stroke="midnightblue" d="M134.83,-213C160.86,-213 194.14,-213 225.84,-213"/>
<polygon fill="midnightblue" stroke="midnightblue" points="134.51,-209.5 124.51,-213 134.51,-216.5 134.51,-209.5"/>
</g>
<!-- Node110&#45;&gt;Node113 -->
<g id="edge11" class="edge">
<title>Node110&#45;&gt;Node113</title>
<path fill="none" stroke="midnightblue" d="M134.5,-201.19C156.8,-195.65 183.76,-188.97 208,-183 220.44,-179.94 233.59,-176.7 246.47,-173.54"/>
<polygon fill="midnightblue" stroke="midnightblue" points="133.46,-197.84 124.6,-203.65 135.15,-204.63 133.46,-197.84"/>
</g>
<!-- Node110&#45;&gt;Node114 -->
<g id="edge12" class="edge">
<title>Node110&#45;&gt;Node114</title>
<path fill="none" stroke="midnightblue" d="M104.86,-196.48C127.34,-176.48 167.91,-143 208,-123 215.24,-119.39 222.91,-116.08 230.73,-113.05"/>
<polygon fill="midnightblue" stroke="midnightblue" points="102.24,-194.13 97.16,-203.43 106.93,-199.32 102.24,-194.13"/>
</g>
<!-- Node110&#45;&gt;Node115 -->
<g id="edge13" class="edge">
<title>Node110&#45;&gt;Node115</title>
<path fill="none" stroke="midnightblue" d="M95.81,-193.76C112.54,-159.45 152.29,-87.88 208,-51 213.39,-47.43 219.16,-44.29 225.15,-41.52"/>
<polygon fill="midnightblue" stroke="midnightblue" points="92.49,-192.59 91.36,-203.13 98.81,-195.6 92.49,-192.59"/>
</g>
<!-- Node110&#45;&gt;Node116 -->
<g id="edge14" class="edge">
<title>Node110&#45;&gt;Node116</title>
<path fill="none" stroke="midnightblue" d="M134.65,-221.1C148.3,-225.53 162.14,-232.39 172,-243 213.4,-287.54 165.26,-331.74 208,-375 214.37,-381.45 221.85,-386.73 229.91,-391.06"/>
<polygon fill="midnightblue" stroke="midnightblue" points="135.38,-217.67 124.8,-218.28 133.45,-224.4 135.38,-217.67"/>
</g>
<!-- Node110&#45;&gt;Node117 -->
<g id="edge15" class="edge">
<title>Node110&#45;&gt;Node117</title>
<path fill="none" stroke="midnightblue" d="M134.44,-223.36C147.58,-227.84 161.18,-234.17 172,-243 196.09,-262.67 183.4,-283.98 208,-303 213.09,-306.93 218.59,-310.43 224.36,-313.56"/>
<polygon fill="midnightblue" stroke="midnightblue" points="135.13,-219.91 124.54,-220.27 133.05,-226.59 135.13,-219.91"/>
</g>
<!-- Node48 -->
<g id="node11" class="node">
<title>Node48</title>
<g id="a_node11"><a xlink:title=" ">
<polygon fill="none" stroke="#bfbfbf" points="0,-466 0,-496 172,-496 172,-466 0,-466"/>
<text text-anchor="start" x="8" y="-484" font-family="Helvetica,sans-Serif" font-size="10.00">System.Collections.Generic.</text>
<text text-anchor="middle" x="86" y="-473" font-family="Helvetica,sans-Serif" font-size="10.00">KeyValuePair&lt; string, string &gt;&gt;</text>
</a>
</g>
</g>
<!-- Node48&#45;&gt;Node0 -->
<g id="edge16" class="edge">
<title>Node48&#45;&gt;Node0</title>
<path fill="none" stroke="midnightblue" d="M182.48,-481C198.33,-481 214.81,-481 230.77,-481"/>
<polygon fill="midnightblue" stroke="midnightblue" points="182.16,-477.5 172.16,-481 182.16,-484.5 182.16,-477.5"/>
</g>
</g>
</svg>
