<?xml version="1.0" encoding="UTF-8" standalone="no"?>
<!DOCTYPE svg PUBLIC "-//W3C//DTD SVG 1.1//EN"
 "http://www.w3.org/Graphics/SVG/1.1/DTD/svg11.dtd">
<!-- Generated by graphviz version 2.43.0 (0)
 -->
<!-- Title: Graphical Class Hierarchy Pages: 1 -->
<svg width="526pt" height="88pt"
 viewBox="0.00 0.00 526.00 88.00" xmlns="http://www.w3.org/2000/svg" xmlns:xlink="http://www.w3.org/1999/xlink">
<g id="graph0" class="graph" transform="scale(1 1) rotate(0) translate(4 84)">
<title>Graphical Class Hierarchy</title>
<!-- Node107 -->
<g id="node1" class="node">
<title>Node107</title>
<g id="a_node1"><a xlink:title=" ">
<polygon fill="none" stroke="#bfbfbf" points="0,-49.5 0,-68.5 109,-68.5 109,-49.5 0,-49.5"/>
<text text-anchor="middle" x="54.5" y="-56.5" font-family="Helvetica,sans-Serif" font-size="10.00">IIpIntelligenceData</text>
</a>
</g>
</g>
<!-- Node108 -->
<g id="node2" class="node">
<title>Node108</title>
<g id="a_node2"><a xlink:href="interface_fifty_one_1_1_ip_intelligence_1_1_engine_1_1_on_premise_1_1_data_1_1_i_ip_data_on_premise.html" target="_top" xlink:title="Represents a data class that contains IP data from an on&#45;premise IP intelligence engine.">
<polygon fill="none" stroke="black" points="145,-38.5 145,-79.5 315,-79.5 315,-38.5 145,-38.5"/>
<text text-anchor="start" x="153" y="-67.5" font-family="Helvetica,sans-Serif" font-size="10.00">FiftyOne.IpIntelligence.</text>
<text text-anchor="start" x="153" y="-56.5" font-family="Helvetica,sans-Serif" font-size="10.00">Engine.OnPremise.Data.IIpData</text>
<text text-anchor="middle" x="230" y="-45.5" font-family="Helvetica,sans-Serif" font-size="10.00">OnPremise</text>
</a>
</g>
</g>
<!-- Node107&#45;&gt;Node108 -->
<g id="edge1" class="edge">
<title>Node107&#45;&gt;Node108</title>
<path fill="none" stroke="midnightblue" d="M119.66,-59C127.87,-59 136.36,-59 144.82,-59"/>
<polygon fill="midnightblue" stroke="midnightblue" points="119.45,-55.5 109.45,-59 119.45,-62.5 119.45,-55.5"/>
</g>
<!-- Node0 -->
<g id="node3" class="node">
<title>Node0</title>
<g id="a_node3"><a xlink:href="class_fifty_one_1_1_ip_intelligence_1_1_engine_1_1_on_premise_1_1_data_1_1_ip_data_on_premise.html" target="_top" xlink:title="Class used for on&#45;premise results">
<polygon fill="none" stroke="black" points="351,-13.5 351,-54.5 518,-54.5 518,-13.5 351,-13.5"/>
<text text-anchor="start" x="359" y="-42.5" font-family="Helvetica,sans-Serif" font-size="10.00">FiftyOne.IpIntelligence.</text>
<text text-anchor="start" x="359" y="-31.5" font-family="Helvetica,sans-Serif" font-size="10.00">Engine.OnPremise.Data.IpData</text>
<text text-anchor="middle" x="434.5" y="-20.5" font-family="Helvetica,sans-Serif" font-size="10.00">OnPremise</text>
</a>
</g>
</g>
<!-- Node108&#45;&gt;Node0 -->
<g id="edge2" class="edge">
<title>Node108&#45;&gt;Node0</title>
<path fill="none" stroke="midnightblue" d="M325.17,-47.37C333.78,-46.31 342.45,-45.24 350.94,-44.19"/>
<polygon fill="midnightblue" stroke="midnightblue" points="324.61,-43.92 315.12,-48.61 325.47,-50.86 324.61,-43.92"/>
</g>
<!-- Node101 -->
<g id="node4" class="node">
<title>Node101</title>
<g id="a_node4"><a xlink:title=" ">
<polygon fill="none" stroke="#bfbfbf" points="167,-0.5 167,-19.5 293,-19.5 293,-0.5 167,-0.5"/>
<text text-anchor="middle" x="230" y="-7.5" font-family="Helvetica,sans-Serif" font-size="10.00">IpDataBaseOnPremise</text>
</a>
</g>
</g>
<!-- Node101&#45;&gt;Node0 -->
<g id="edge3" class="edge">
<title>Node101&#45;&gt;Node0</title>
<path fill="none" stroke="midnightblue" d="M303.15,-18.55C318.64,-20.39 335.11,-22.34 350.96,-24.22"/>
<polygon fill="midnightblue" stroke="midnightblue" points="303.48,-15.07 293.13,-17.36 302.65,-22.02 303.48,-15.07"/>
</g>
</g>
</svg>
