<?xml version="1.0" encoding="UTF-8" standalone="no"?>
<!DOCTYPE svg PUBLIC "-//W3C//DTD SVG 1.1//EN"
 "http://www.w3.org/Graphics/SVG/1.1/DTD/svg11.dtd">
<!-- Generated by graphviz version 2.43.0 (0)
 -->
<!-- Title: FiftyOne.IpIntelligence.Engine.OnPremise.Wrappers.IValueCollectionSwigWrapper Pages: 1 -->
<svg width="280pt" height="184pt"
 viewBox="0.00 0.00 279.50 184.00" xmlns="http://www.w3.org/2000/svg" xmlns:xlink="http://www.w3.org/1999/xlink">
<g id="graph0" class="graph" transform="scale(1 1) rotate(0) translate(4 180)">
<title>FiftyOne.IpIntelligence.Engine.OnPremise.Wrappers.IValueCollectionSwigWrapper</title>
<!-- Node0 -->
<g id="node1" class="node">
<title>Node0</title>
<g id="a_node1"><a xlink:title=" ">
<polygon fill="#bfbfbf" stroke="black" points="15,-78.5 15,-119.5 203,-119.5 203,-78.5 15,-78.5"/>
<text text-anchor="start" x="23" y="-107.5" font-family="Helvetica,sans-Serif" font-size="10.00">FiftyOne.IpIntelligence.</text>
<text text-anchor="start" x="23" y="-96.5" font-family="Helvetica,sans-Serif" font-size="10.00">Engine.OnPremise.Wrappers.IValue</text>
<text text-anchor="middle" x="109" y="-85.5" font-family="Helvetica,sans-Serif" font-size="10.00">CollectionSwigWrapper</text>
</a>
</g>
</g>
<!-- Node3 -->
<g id="node4" class="node">
<title>Node3</title>
<g id="a_node4"><a xlink:href="class_fifty_one_1_1_ip_intelligence_1_1_engine_1_1_on_premise_1_1_wrappers_1_1_value_collection_swig_wrapper.html" target="_top" xlink:title=" ">
<polygon fill="none" stroke="black" points="16.5,-0.5 16.5,-41.5 201.5,-41.5 201.5,-0.5 16.5,-0.5"/>
<text text-anchor="start" x="24.5" y="-29.5" font-family="Helvetica,sans-Serif" font-size="10.00">FiftyOne.IpIntelligence.</text>
<text text-anchor="start" x="24.5" y="-18.5" font-family="Helvetica,sans-Serif" font-size="10.00">Engine.OnPremise.Wrappers.Value</text>
<text text-anchor="middle" x="109" y="-7.5" font-family="Helvetica,sans-Serif" font-size="10.00">CollectionSwigWrapper</text>
</a>
</g>
</g>
<!-- Node0&#45;&gt;Node3 -->
<g id="edge3" class="edge">
<title>Node0&#45;&gt;Node3</title>
<path fill="none" stroke="midnightblue" d="M109,-68.3C109,-59.3 109,-49.65 109,-41.51"/>
<polygon fill="midnightblue" stroke="midnightblue" points="105.5,-68.43 109,-78.43 112.5,-68.43 105.5,-68.43"/>
</g>
<!-- Node1 -->
<g id="node2" class="node">
<title>Node1</title>
<g id="a_node2"><a xlink:title=" ">
<polygon fill="none" stroke="#bfbfbf" points="0,-156.5 0,-175.5 74,-175.5 74,-156.5 0,-156.5"/>
<text text-anchor="middle" x="37" y="-163.5" font-family="Helvetica,sans-Serif" font-size="10.00">IDisposable</text>
</a>
</g>
</g>
<!-- Node1&#45;&gt;Node0 -->
<g id="edge1" class="edge">
<title>Node1&#45;&gt;Node0</title>
<path fill="none" stroke="midnightblue" d="M54.33,-149.36C64.25,-140.4 76.79,-129.08 87.35,-119.54"/>
<polygon fill="midnightblue" stroke="midnightblue" points="51.79,-146.93 46.71,-156.23 56.48,-152.13 51.79,-146.93"/>
</g>
<!-- Node2 -->
<g id="node3" class="node">
<title>Node2</title>
<g id="a_node3"><a xlink:title=" ">
<polygon fill="none" stroke="#bfbfbf" points="92.5,-156.5 92.5,-175.5 271.5,-175.5 271.5,-156.5 92.5,-156.5"/>
<text text-anchor="middle" x="182" y="-163.5" font-family="Helvetica,sans-Serif" font-size="10.00">IEnumerable&lt; IValueMetaData &gt;</text>
</a>
</g>
</g>
<!-- Node2&#45;&gt;Node0 -->
<g id="edge2" class="edge">
<title>Node2&#45;&gt;Node0</title>
<path fill="none" stroke="midnightblue" d="M164.43,-149.36C154.37,-140.4 141.66,-129.08 130.95,-119.54"/>
<polygon fill="midnightblue" stroke="midnightblue" points="162.36,-152.2 172.15,-156.23 167.01,-146.97 162.36,-152.2"/>
</g>
</g>
</svg>
