<?xml version="1.0" encoding="UTF-8" standalone="no"?>
<!DOCTYPE svg PUBLIC "-//W3C//DTD SVG 1.1//EN"
 "http://www.w3.org/Graphics/SVG/1.1/DTD/svg11.dtd">
<!-- Generated by graphviz version 2.43.0 (0)
 -->
<!-- Title: FiftyOne.IpIntelligence.Engine.OnPremise.Wrappers.IProfileCollectionSwigWrapper Pages: 1 -->
<svg width="248pt" height="195pt"
 viewBox="0.00 0.00 248.00 195.00" xmlns="http://www.w3.org/2000/svg" xmlns:xlink="http://www.w3.org/1999/xlink">
<g id="graph0" class="graph" transform="scale(1 1) rotate(0) translate(4 191)">
<title>FiftyOne.IpIntelligence.Engine.OnPremise.Wrappers.IProfileCollectionSwigWrapper</title>
<!-- Node0 -->
<g id="node1" class="node">
<title>Node0</title>
<g id="a_node1"><a xlink:title=" ">
<polygon fill="#bfbfbf" stroke="black" points="5,-78.5 5,-119.5 197,-119.5 197,-78.5 5,-78.5"/>
<text text-anchor="start" x="13" y="-107.5" font-family="Helvetica,sans-Serif" font-size="10.00">FiftyOne.IpIntelligence.</text>
<text text-anchor="start" x="13" y="-96.5" font-family="Helvetica,sans-Serif" font-size="10.00">Engine.OnPremise.Wrappers.IProfile</text>
<text text-anchor="middle" x="101" y="-85.5" font-family="Helvetica,sans-Serif" font-size="10.00">CollectionSwigWrapper</text>
</a>
</g>
</g>
<!-- Node3 -->
<g id="node4" class="node">
<title>Node3</title>
<g id="a_node4"><a xlink:href="class_fifty_one_1_1_ip_intelligence_1_1_engine_1_1_on_premise_1_1_wrappers_1_1_profile_collection_swig_wrapper.html" target="_top" xlink:title=" ">
<polygon fill="none" stroke="black" points="6.5,-0.5 6.5,-41.5 195.5,-41.5 195.5,-0.5 6.5,-0.5"/>
<text text-anchor="start" x="14.5" y="-29.5" font-family="Helvetica,sans-Serif" font-size="10.00">FiftyOne.IpIntelligence.</text>
<text text-anchor="start" x="14.5" y="-18.5" font-family="Helvetica,sans-Serif" font-size="10.00">Engine.OnPremise.Wrappers.Profile</text>
<text text-anchor="middle" x="101" y="-7.5" font-family="Helvetica,sans-Serif" font-size="10.00">CollectionSwigWrapper</text>
</a>
</g>
</g>
<!-- Node0&#45;&gt;Node3 -->
<g id="edge3" class="edge">
<title>Node0&#45;&gt;Node3</title>
<path fill="none" stroke="midnightblue" d="M101,-68.3C101,-59.3 101,-49.65 101,-41.51"/>
<polygon fill="midnightblue" stroke="midnightblue" points="97.5,-68.43 101,-78.43 104.5,-68.43 97.5,-68.43"/>
</g>
<!-- Node1 -->
<g id="node2" class="node">
<title>Node1</title>
<g id="a_node2"><a xlink:title=" ">
<polygon fill="none" stroke="#bfbfbf" points="0,-162 0,-181 74,-181 74,-162 0,-162"/>
<text text-anchor="middle" x="37" y="-169" font-family="Helvetica,sans-Serif" font-size="10.00">IDisposable</text>
</a>
</g>
</g>
<!-- Node1&#45;&gt;Node0 -->
<g id="edge1" class="edge">
<title>Node1&#45;&gt;Node0</title>
<path fill="none" stroke="midnightblue" d="M51.65,-154.36C61.02,-144.05 73.22,-130.6 83.15,-119.66"/>
<polygon fill="midnightblue" stroke="midnightblue" points="48.98,-152.1 44.85,-161.86 54.16,-156.8 48.98,-152.1"/>
</g>
<!-- Node2 -->
<g id="node3" class="node">
<title>Node2</title>
<g id="a_node3"><a xlink:title=" ">
<polygon fill="none" stroke="#bfbfbf" points="92,-156.5 92,-186.5 240,-186.5 240,-156.5 92,-156.5"/>
<text text-anchor="start" x="100" y="-174.5" font-family="Helvetica,sans-Serif" font-size="10.00">IEnumerable&lt; IProfileMeta</text>
<text text-anchor="middle" x="166" y="-163.5" font-family="Helvetica,sans-Serif" font-size="10.00">Data &gt;</text>
</a>
</g>
</g>
<!-- Node2&#45;&gt;Node0 -->
<g id="edge2" class="edge">
<title>Node2&#45;&gt;Node0</title>
<path fill="none" stroke="midnightblue" d="M146.01,-148.82C137.41,-139.49 127.43,-128.67 119.06,-119.59"/>
<polygon fill="midnightblue" stroke="midnightblue" points="143.49,-151.25 152.85,-156.23 148.64,-146.51 143.49,-151.25"/>
</g>
</g>
</svg>
