<?xml version="1.0" encoding="UTF-8" standalone="no"?>
<!DOCTYPE svg PUBLIC "-//W3C//DTD SVG 1.1//EN"
 "http://www.w3.org/Graphics/SVG/1.1/DTD/svg11.dtd">
<!-- Generated by graphviz version 2.43.0 (0)
 -->
<!-- Title: FiftyOne.IpIntelligence.Engine.OnPremise.Wrappers.IComponentCollectionSwigWrapper Pages: 1 -->
<svg width="275pt" height="117pt"
 viewBox="0.00 0.00 274.50 117.00" xmlns="http://www.w3.org/2000/svg" xmlns:xlink="http://www.w3.org/1999/xlink">
<g id="graph0" class="graph" transform="scale(1 1) rotate(0) translate(4 113)">
<title>FiftyOne.IpIntelligence.Engine.OnPremise.Wrappers.IComponentCollectionSwigWrapper</title>
<!-- Node4 -->
<g id="node1" class="node">
<title>Node4</title>
<g id="a_node1"><a xlink:title=" ">
<polygon fill="#bfbfbf" stroke="black" points="0,-0.5 0,-41.5 218,-41.5 218,-0.5 0,-0.5"/>
<text text-anchor="start" x="8" y="-29.5" font-family="Helvetica,sans-Serif" font-size="10.00">FiftyOne.IpIntelligence.</text>
<text text-anchor="start" x="8" y="-18.5" font-family="Helvetica,sans-Serif" font-size="10.00">Engine.OnPremise.Wrappers.IComponent</text>
<text text-anchor="middle" x="109" y="-7.5" font-family="Helvetica,sans-Serif" font-size="10.00">CollectionSwigWrapper</text>
</a>
</g>
</g>
<!-- Node5 -->
<g id="node2" class="node">
<title>Node5</title>
<g id="a_node2"><a xlink:title=" ">
<polygon fill="none" stroke="#bfbfbf" points="1,-84 1,-103 75,-103 75,-84 1,-84"/>
<text text-anchor="middle" x="38" y="-91" font-family="Helvetica,sans-Serif" font-size="10.00">IDisposable</text>
</a>
</g>
</g>
<!-- Node5&#45;&gt;Node4 -->
<g id="edge1" class="edge">
<title>Node5&#45;&gt;Node4</title>
<path fill="none" stroke="midnightblue" d="M53.95,-76.67C64.37,-66.31 78.07,-52.71 89.2,-41.66"/>
<polygon fill="midnightblue" stroke="midnightblue" points="51.34,-74.33 46.71,-83.86 56.27,-79.29 51.34,-74.33"/>
</g>
<!-- Node6 -->
<g id="node3" class="node">
<title>Node6</title>
<g id="a_node3"><a xlink:title=" ">
<polygon fill="none" stroke="#bfbfbf" points="93.5,-78.5 93.5,-108.5 266.5,-108.5 266.5,-78.5 93.5,-78.5"/>
<text text-anchor="start" x="101.5" y="-96.5" font-family="Helvetica,sans-Serif" font-size="10.00">IEnumerable&lt; IComponentMeta</text>
<text text-anchor="middle" x="180" y="-85.5" font-family="Helvetica,sans-Serif" font-size="10.00">Data &gt;</text>
</a>
</g>
</g>
<!-- Node6&#45;&gt;Node4 -->
<g id="edge2" class="edge">
<title>Node6&#45;&gt;Node4</title>
<path fill="none" stroke="midnightblue" d="M158.45,-71.1C148.99,-61.71 137.97,-50.76 128.73,-41.59"/>
<polygon fill="midnightblue" stroke="midnightblue" points="156.07,-73.67 165.63,-78.23 161,-68.7 156.07,-73.67"/>
</g>
</g>
</svg>
