<?xml version="1.0" encoding="UTF-8" standalone="no"?>
<!DOCTYPE svg PUBLIC "-//W3C//DTD SVG 1.1//EN"
 "http://www.w3.org/Graphics/SVG/1.1/DTD/svg11.dtd">
<!-- Generated by graphviz version 2.43.0 (0)
 -->
<!-- Title: FiftyOne.IpIntelligence.Engine.OnPremise.Data.IIpDataOnPremise Pages: 1 -->
<svg width="178pt" height="184pt"
 viewBox="0.00 0.00 178.00 184.00" xmlns="http://www.w3.org/2000/svg" xmlns:xlink="http://www.w3.org/1999/xlink">
<g id="graph0" class="graph" transform="scale(1 1) rotate(0) translate(4 180)">
<title>FiftyOne.IpIntelligence.Engine.OnPremise.Data.IIpDataOnPremise</title>
<!-- Node0 -->
<g id="node1" class="node">
<title>Node0</title>
<g id="a_node1"><a xlink:title="Represents a data class that contains IP data from an on&#45;premise IP intelligence engine.">
<polygon fill="#bfbfbf" stroke="black" points="0,-78.5 0,-119.5 170,-119.5 170,-78.5 0,-78.5"/>
<text text-anchor="start" x="8" y="-107.5" font-family="Helvetica,sans-Serif" font-size="10.00">FiftyOne.IpIntelligence.</text>
<text text-anchor="start" x="8" y="-96.5" font-family="Helvetica,sans-Serif" font-size="10.00">Engine.OnPremise.Data.IIpData</text>
<text text-anchor="middle" x="85" y="-85.5" font-family="Helvetica,sans-Serif" font-size="10.00">OnPremise</text>
</a>
</g>
</g>
<!-- Node2 -->
<g id="node3" class="node">
<title>Node2</title>
<g id="a_node3"><a xlink:href="class_fifty_one_1_1_ip_intelligence_1_1_engine_1_1_on_premise_1_1_data_1_1_ip_data_on_premise.html" target="_top" xlink:title="Class used for on&#45;premise results">
<polygon fill="none" stroke="black" points="1.5,-0.5 1.5,-41.5 168.5,-41.5 168.5,-0.5 1.5,-0.5"/>
<text text-anchor="start" x="9.5" y="-29.5" font-family="Helvetica,sans-Serif" font-size="10.00">FiftyOne.IpIntelligence.</text>
<text text-anchor="start" x="9.5" y="-18.5" font-family="Helvetica,sans-Serif" font-size="10.00">Engine.OnPremise.Data.IpData</text>
<text text-anchor="middle" x="85" y="-7.5" font-family="Helvetica,sans-Serif" font-size="10.00">OnPremise</text>
</a>
</g>
</g>
<!-- Node0&#45;&gt;Node2 -->
<g id="edge2" class="edge">
<title>Node0&#45;&gt;Node2</title>
<path fill="none" stroke="midnightblue" d="M85,-68.3C85,-59.3 85,-49.65 85,-41.51"/>
<polygon fill="midnightblue" stroke="midnightblue" points="81.5,-68.43 85,-78.43 88.5,-68.43 81.5,-68.43"/>
</g>
<!-- Node1 -->
<g id="node2" class="node">
<title>Node1</title>
<g id="a_node2"><a xlink:title=" ">
<polygon fill="none" stroke="#bfbfbf" points="30.5,-156.5 30.5,-175.5 139.5,-175.5 139.5,-156.5 30.5,-156.5"/>
<text text-anchor="middle" x="85" y="-163.5" font-family="Helvetica,sans-Serif" font-size="10.00">IIpIntelligenceData</text>
</a>
</g>
</g>
<!-- Node1&#45;&gt;Node0 -->
<g id="edge1" class="edge">
<title>Node1&#45;&gt;Node0</title>
<path fill="none" stroke="midnightblue" d="M85,-146.04C85,-137.71 85,-127.94 85,-119.54"/>
<polygon fill="midnightblue" stroke="midnightblue" points="81.5,-146.23 85,-156.23 88.5,-146.23 81.5,-146.23"/>
</g>
</g>
</svg>
