<?xml version="1.0" encoding="UTF-8" standalone="no"?>
<!DOCTYPE svg PUBLIC "-//W3C//DTD SVG 1.1//EN"
 "http://www.w3.org/Graphics/SVG/1.1/DTD/svg11.dtd">
<!-- Generated by graphviz version 2.43.0 (0)
 -->
<!-- Title: FiftyOne.IpIntelligence.Engine.OnPremise.Wrappers.IPropertyCollectionSwigWrapper Pages: 1 -->
<svg width="266pt" height="195pt"
 viewBox="0.00 0.00 266.00 195.00" xmlns="http://www.w3.org/2000/svg" xmlns:xlink="http://www.w3.org/1999/xlink">
<g id="graph0" class="graph" transform="scale(1 1) rotate(0) translate(4 191)">
<title>FiftyOne.IpIntelligence.Engine.OnPremise.Wrappers.IPropertyCollectionSwigWrapper</title>
<!-- Node0 -->
<g id="node1" class="node">
<title>Node0</title>
<g id="a_node1"><a xlink:title=" ">
<polygon fill="#bfbfbf" stroke="black" points="4.5,-78.5 4.5,-119.5 207.5,-119.5 207.5,-78.5 4.5,-78.5"/>
<text text-anchor="start" x="12.5" y="-107.5" font-family="Helvetica,sans-Serif" font-size="10.00">FiftyOne.IpIntelligence.</text>
<text text-anchor="start" x="12.5" y="-96.5" font-family="Helvetica,sans-Serif" font-size="10.00">Engine.OnPremise.Wrappers.IProperty</text>
<text text-anchor="middle" x="106" y="-85.5" font-family="Helvetica,sans-Serif" font-size="10.00">CollectionSwigWrapper</text>
</a>
</g>
</g>
<!-- Node3 -->
<g id="node4" class="node">
<title>Node3</title>
<g id="a_node4"><a xlink:href="class_fifty_one_1_1_ip_intelligence_1_1_engine_1_1_on_premise_1_1_wrappers_1_1_property_collection_swig_wrapper.html" target="_top" xlink:title=" ">
<polygon fill="none" stroke="black" points="6,-0.5 6,-41.5 206,-41.5 206,-0.5 6,-0.5"/>
<text text-anchor="start" x="14" y="-29.5" font-family="Helvetica,sans-Serif" font-size="10.00">FiftyOne.IpIntelligence.</text>
<text text-anchor="start" x="14" y="-18.5" font-family="Helvetica,sans-Serif" font-size="10.00">Engine.OnPremise.Wrappers.Property</text>
<text text-anchor="middle" x="106" y="-7.5" font-family="Helvetica,sans-Serif" font-size="10.00">CollectionSwigWrapper</text>
</a>
</g>
</g>
<!-- Node0&#45;&gt;Node3 -->
<g id="edge3" class="edge">
<title>Node0&#45;&gt;Node3</title>
<path fill="none" stroke="midnightblue" d="M106,-68.3C106,-59.3 106,-49.65 106,-41.51"/>
<polygon fill="midnightblue" stroke="midnightblue" points="102.5,-68.43 106,-78.43 109.5,-68.43 102.5,-68.43"/>
</g>
<!-- Node1 -->
<g id="node2" class="node">
<title>Node1</title>
<g id="a_node2"><a xlink:title=" ">
<polygon fill="none" stroke="#bfbfbf" points="0,-162 0,-181 74,-181 74,-162 0,-162"/>
<text text-anchor="middle" x="37" y="-169" font-family="Helvetica,sans-Serif" font-size="10.00">IDisposable</text>
</a>
</g>
</g>
<!-- Node1&#45;&gt;Node0 -->
<g id="edge1" class="edge">
<title>Node1&#45;&gt;Node0</title>
<path fill="none" stroke="midnightblue" d="M52.5,-154.67C62.63,-144.31 75.95,-130.71 86.76,-119.66"/>
<polygon fill="midnightblue" stroke="midnightblue" points="49.95,-152.26 45.46,-161.86 54.96,-157.16 49.95,-152.26"/>
</g>
<!-- Node2 -->
<g id="node3" class="node">
<title>Node2</title>
<g id="a_node3"><a xlink:title=" ">
<polygon fill="none" stroke="#bfbfbf" points="92,-156.5 92,-186.5 258,-186.5 258,-156.5 92,-156.5"/>
<text text-anchor="start" x="100" y="-174.5" font-family="Helvetica,sans-Serif" font-size="10.00">IEnumerable&lt; IFiftyOneAspect</text>
<text text-anchor="middle" x="175" y="-163.5" font-family="Helvetica,sans-Serif" font-size="10.00">PropertyMetaData &gt;</text>
</a>
</g>
</g>
<!-- Node2&#45;&gt;Node0 -->
<g id="edge2" class="edge">
<title>Node2&#45;&gt;Node0</title>
<path fill="none" stroke="midnightblue" d="M153.78,-148.82C144.65,-139.49 134.06,-128.67 125.17,-119.59"/>
<polygon fill="midnightblue" stroke="midnightblue" points="151.54,-151.53 161.04,-156.23 156.54,-146.64 151.54,-151.53"/>
</g>
</g>
</svg>
