<?xml version="1.0" encoding="UTF-8" standalone="no"?>
<!DOCTYPE svg PUBLIC "-//W3C//DTD SVG 1.1//EN"
 "http://www.w3.org/Graphics/SVG/1.1/DTD/svg11.dtd">
<!-- Generated by graphviz version 2.43.0 (0)
 -->
<!-- Title: FiftyOne.IpIntelligence.Engine.OnPremise.Wrappers.IComponentCollectionSwigWrapper Pages: 1 -->
<svg width="275pt" height="195pt"
 viewBox="0.00 0.00 274.50 195.00" xmlns="http://www.w3.org/2000/svg" xmlns:xlink="http://www.w3.org/1999/xlink">
<g id="graph0" class="graph" transform="scale(1 1) rotate(0) translate(4 191)">
<title>FiftyOne.IpIntelligence.Engine.OnPremise.Wrappers.IComponentCollectionSwigWrapper</title>
<!-- Node0 -->
<g id="node1" class="node">
<title>Node0</title>
<g id="a_node1"><a xlink:title=" ">
<polygon fill="#bfbfbf" stroke="black" points="0,-78.5 0,-119.5 218,-119.5 218,-78.5 0,-78.5"/>
<text text-anchor="start" x="8" y="-107.5" font-family="Helvetica,sans-Serif" font-size="10.00">FiftyOne.IpIntelligence.</text>
<text text-anchor="start" x="8" y="-96.5" font-family="Helvetica,sans-Serif" font-size="10.00">Engine.OnPremise.Wrappers.IComponent</text>
<text text-anchor="middle" x="109" y="-85.5" font-family="Helvetica,sans-Serif" font-size="10.00">CollectionSwigWrapper</text>
</a>
</g>
</g>
<!-- Node3 -->
<g id="node4" class="node">
<title>Node3</title>
<g id="a_node4"><a xlink:href="class_fifty_one_1_1_ip_intelligence_1_1_engine_1_1_on_premise_1_1_wrappers_1_1_component_collection_swig_wrapper.html" target="_top" xlink:title=" ">
<polygon fill="none" stroke="black" points="1.5,-0.5 1.5,-41.5 216.5,-41.5 216.5,-0.5 1.5,-0.5"/>
<text text-anchor="start" x="9.5" y="-29.5" font-family="Helvetica,sans-Serif" font-size="10.00">FiftyOne.IpIntelligence.</text>
<text text-anchor="start" x="9.5" y="-18.5" font-family="Helvetica,sans-Serif" font-size="10.00">Engine.OnPremise.Wrappers.Component</text>
<text text-anchor="middle" x="109" y="-7.5" font-family="Helvetica,sans-Serif" font-size="10.00">CollectionSwigWrapper</text>
</a>
</g>
</g>
<!-- Node0&#45;&gt;Node3 -->
<g id="edge3" class="edge">
<title>Node0&#45;&gt;Node3</title>
<path fill="none" stroke="midnightblue" d="M109,-68.3C109,-59.3 109,-49.65 109,-41.51"/>
<polygon fill="midnightblue" stroke="midnightblue" points="105.5,-68.43 109,-78.43 112.5,-68.43 105.5,-68.43"/>
</g>
<!-- Node1 -->
<g id="node2" class="node">
<title>Node1</title>
<g id="a_node2"><a xlink:title=" ">
<polygon fill="none" stroke="#bfbfbf" points="1,-162 1,-181 75,-181 75,-162 1,-162"/>
<text text-anchor="middle" x="38" y="-169" font-family="Helvetica,sans-Serif" font-size="10.00">IDisposable</text>
</a>
</g>
</g>
<!-- Node1&#45;&gt;Node0 -->
<g id="edge1" class="edge">
<title>Node1&#45;&gt;Node0</title>
<path fill="none" stroke="midnightblue" d="M53.95,-154.67C64.37,-144.31 78.07,-130.71 89.2,-119.66"/>
<polygon fill="midnightblue" stroke="midnightblue" points="51.34,-152.33 46.71,-161.86 56.27,-157.29 51.34,-152.33"/>
</g>
<!-- Node2 -->
<g id="node3" class="node">
<title>Node2</title>
<g id="a_node3"><a xlink:title=" ">
<polygon fill="none" stroke="#bfbfbf" points="93.5,-156.5 93.5,-186.5 266.5,-186.5 266.5,-156.5 93.5,-156.5"/>
<text text-anchor="start" x="101.5" y="-174.5" font-family="Helvetica,sans-Serif" font-size="10.00">IEnumerable&lt; IComponentMeta</text>
<text text-anchor="middle" x="180" y="-163.5" font-family="Helvetica,sans-Serif" font-size="10.00">Data &gt;</text>
</a>
</g>
</g>
<!-- Node2&#45;&gt;Node0 -->
<g id="edge2" class="edge">
<title>Node2&#45;&gt;Node0</title>
<path fill="none" stroke="midnightblue" d="M158.45,-149.1C148.99,-139.71 137.97,-128.76 128.73,-119.59"/>
<polygon fill="midnightblue" stroke="midnightblue" points="156.07,-151.67 165.63,-156.23 161,-146.7 156.07,-151.67"/>
</g>
</g>
</svg>
